<svg width="67" height="51" viewBox="0 0 67 51" fill="none" xmlns="http://www.w3.org/2000/svg">
<g clip-path="url(#clip0_168_514)">
<path d="M15.2273 50.263V24.3764L7.1991 17.0318L0 12.9561V45.6947C0 48.2224 2.04795 50.263 4.5683 50.263H15.2273Z" fill="#4285F4"/>
<path d="M51.7725 50.2628H62.4315C64.9594 50.2628 66.9998 48.2145 66.9998 45.6945V12.9561L58.8457 17.6243L51.7725 24.3762V50.2628Z" fill="#34A853"/>
<path d="M15.2272 24.3764L14.1348 14.2618L15.2272 4.58105L33.4999 18.2857L51.7725 4.58105L52.9945 13.7391L51.7725 24.3764L33.4999 38.0811L15.2272 24.3764Z" fill="#EA4335"/>
<path d="M51.7725 4.58104V24.3764L66.9998 12.956V6.86506C66.9998 1.21586 60.551 -2.00458 56.0364 1.38336L51.7725 4.58104Z" fill="#FBBC04"/>
<path d="M0 12.9562L7.00333 18.2089L15.2273 24.3765V4.58116L10.9634 1.38348C6.4409 -2.00473 0 1.21598 0 6.86492V12.9559V12.9562Z" fill="#C5221F"/>
</g>
<defs>
<clipPath id="clip0_168_514">
<rect width="67" height="50.5117" fill="white"/>
</clipPath>
</defs>
</svg>
