<svg width="67" height="67" viewBox="0 0 67 67" fill="none" xmlns="http://www.w3.org/2000/svg">
<g clip-path="url(#clip0_168_509)">
<path d="M51.2969 0H15.7031C7.03053 0 0 7.03053 0 15.7031V51.2969C0 59.9695 7.03053 67 15.7031 67H51.2969C59.9695 67 67 59.9695 67 51.2969V15.7031C67 7.03053 59.9695 0 51.2969 0Z" fill="url(#paint0_radial_168_509)"/>
<path d="M51.2969 0H15.7031C7.03053 0 0 7.03053 0 15.7031V51.2969C0 59.9695 7.03053 67 15.7031 67H51.2969C59.9695 67 67 59.9695 67 51.2969V15.7031C67 7.03053 59.9695 0 51.2969 0Z" fill="url(#paint1_radial_168_509)"/>
<path d="M33.5024 7.32812C26.3946 7.32812 25.5024 7.35927 22.7109 7.4862C19.9246 7.61392 18.0227 8.05492 16.3587 8.70215C14.6371 9.37058 13.177 10.2649 11.7224 11.72C10.2664 13.1749 9.37215 14.635 8.70163 16.3558C8.05256 18.0204 7.61104 19.9231 7.48568 22.708C7.36084 25.4998 7.32812 26.3922 7.32812 33.5003C7.32812 40.6083 7.35953 41.4976 7.4862 44.2891C7.61445 47.0753 8.05544 48.9772 8.70215 50.6413C9.3711 52.3628 10.2654 53.823 11.7206 55.2776C13.1749 56.7336 14.6351 57.6299 16.3553 58.2984C18.0206 58.9456 19.9228 59.3866 22.7086 59.5143C25.5003 59.6412 26.3917 59.6724 33.4992 59.6724C40.6078 59.6724 41.4971 59.6412 44.2886 59.5143C47.0748 59.3866 48.9788 58.9456 50.6441 58.2984C52.3649 57.6299 53.823 56.7336 55.2771 55.2776C56.733 53.823 57.6271 52.3628 58.2979 50.642C58.9412 48.9773 59.3829 47.0748 59.5138 44.2896C59.6392 41.4981 59.6719 40.6083 59.6719 33.5003C59.6719 26.3922 59.6392 25.5003 59.5138 22.7085C59.3829 19.9223 58.9412 18.0206 58.2979 16.3566C57.6271 14.635 56.733 13.1749 55.2771 11.72C53.8214 10.2643 52.3655 9.37005 50.6426 8.70241C48.9741 8.05492 47.0712 7.61366 44.2849 7.4862C41.4931 7.35927 40.6044 7.32812 33.4942 7.32812H33.5024ZM31.1545 12.0446C31.8514 12.0435 32.629 12.0446 33.5024 12.0446C40.4905 12.0446 41.3186 12.0697 44.0781 12.195C46.6299 12.3118 48.0149 12.7381 48.9375 13.0964C50.1589 13.5706 51.0297 14.1378 51.9452 15.0541C52.8612 15.9701 53.4281 16.8424 53.9036 18.0638C54.2619 18.9851 54.6888 20.3701 54.805 22.9218C54.9303 25.6809 54.9575 26.5095 54.9575 33.4942C54.9575 40.479 54.9303 41.3078 54.805 44.0666C54.6882 46.6184 54.2619 48.0034 53.9036 48.9249C53.4294 50.1463 52.8612 51.016 51.9452 51.9315C51.0291 52.8475 50.1594 53.4144 48.9375 53.8889C48.016 54.2488 46.6299 54.6741 44.0781 54.7908C41.3191 54.9162 40.4905 54.9434 33.5024 54.9434C26.5139 54.9434 25.6856 54.9162 22.9268 54.7908C20.3751 54.673 18.9901 54.2467 18.0667 53.8884C16.8455 53.4139 15.973 52.847 15.0569 51.931C14.1409 51.015 13.574 50.1448 13.0985 48.9228C12.7402 48.0013 12.3133 46.6163 12.1971 44.0645C12.0718 41.3055 12.0467 40.4769 12.0467 33.4877C12.0467 26.4988 12.0718 25.6743 12.1971 22.9153C12.3139 20.3635 12.7402 18.9785 13.0985 18.056C13.573 16.8345 14.1409 15.9622 15.0572 15.0462C15.9732 14.1302 16.8455 13.563 18.067 13.0878C18.9895 12.7279 20.3751 12.3026 22.9268 12.1854C25.3412 12.0762 26.2768 12.0435 31.1545 12.038V12.0446ZM47.4729 16.3901C45.739 16.3901 44.3323 17.7956 44.3323 19.5297C44.3323 21.2636 45.739 22.6703 47.4729 22.6703C49.2068 22.6703 50.6135 21.2636 50.6135 19.5297C50.6135 17.7958 49.2068 16.3891 47.4729 16.3891V16.3901ZM33.5024 20.0597C26.08 20.0597 20.0621 26.0777 20.0621 33.5003C20.0621 40.9229 26.08 46.9379 33.5024 46.9379C40.925 46.9379 46.9408 40.9229 46.9408 33.5003C46.9408 26.0779 40.9244 20.0597 33.5018 20.0597H33.5024ZM33.5024 24.7761C38.3203 24.7761 42.2265 28.6818 42.2265 33.5003C42.2265 38.3182 38.3203 42.2244 33.5024 42.2244C28.6841 42.2244 24.7785 38.3182 24.7785 33.5003C24.7785 28.6818 28.6841 24.7761 33.5024 24.7761Z" fill="white"/>
</g>
<defs>
<radialGradient id="paint0_radial_168_509" cx="0" cy="0" r="1" gradientUnits="userSpaceOnUse" gradientTransform="translate(17.7969 72.1603) rotate(-90) scale(66.402 61.7591)">
<stop stop-color="#FFDD55"/>
<stop offset="0.1" stop-color="#FFDD55"/>
<stop offset="0.5" stop-color="#FF543E"/>
<stop offset="1" stop-color="#C837AB"/>
</radialGradient>
<radialGradient id="paint1_radial_168_509" cx="0" cy="0" r="1" gradientUnits="userSpaceOnUse" gradientTransform="translate(-11.2228 4.82635) rotate(78.681) scale(29.682 122.35)">
<stop stop-color="#3771C8"/>
<stop offset="0.128" stop-color="#3771C8"/>
<stop offset="1" stop-color="#6600FF" stop-opacity="0"/>
</radialGradient>
<clipPath id="clip0_168_509">
<rect width="67" height="67" fill="white"/>
</clipPath>
</defs>
</svg>
