<svg width="67" height="67" viewBox="0 0 67 67" fill="none" xmlns="http://www.w3.org/2000/svg">
<g clip-path="url(#clip0_168_506)">
<path d="M33.5 0C24.6173 0 16.0905 3.53163 9.81445 9.81184C3.53196 16.0945 0.00174027 24.6151 0 33.5C0 42.3812 3.5332 50.908 9.81445 57.1882C16.0905 63.4684 24.6173 67 33.5 67C42.3827 67 50.9095 63.4684 57.1855 57.1882C63.4668 50.908 67 42.3812 67 33.5C67 24.6188 63.4668 16.092 57.1855 9.81184C50.9095 3.53163 42.3827 0 33.5 0Z" fill="url(#paint0_linear_168_506)"/>
<path d="M15.1636 33.1461C24.931 28.8916 31.4425 26.0865 34.6983 24.7313C44.005 20.8616 45.9365 20.1895 47.198 20.1667C47.4754 20.1623 48.093 20.2308 48.4961 20.5567C48.8311 20.8315 48.9253 21.2031 48.9724 21.464C49.0143 21.7247 49.0719 22.3188 49.0248 22.7826C48.5223 28.0798 46.3395 40.9343 45.2299 46.8675C44.764 49.3779 43.8375 50.2196 42.9424 50.3018C40.9952 50.4808 39.5191 49.0162 37.6348 47.7814C34.6878 45.8484 33.0233 44.6455 30.1601 42.7596C26.852 40.58 28.9981 39.3818 30.8824 37.4242C31.3745 36.9117 39.9484 29.1151 40.1106 28.408C40.1316 28.3195 40.1525 27.9897 39.9536 27.816C39.7599 27.6416 39.472 27.7013 39.2627 27.7484C38.9643 27.8154 34.2586 30.9288 25.1299 37.0881C23.7951 38.0062 22.586 38.4538 21.4972 38.4302C20.3038 38.4046 18.0006 37.7539 16.289 37.198C14.1953 36.516 12.5255 36.1554 12.672 34.997C12.7453 34.394 13.5776 33.7769 15.1636 33.1461Z" fill="white"/>
</g>
<defs>
<linearGradient id="paint0_linear_168_506" x1="3350" y1="0" x2="3350" y2="6700" gradientUnits="userSpaceOnUse">
<stop stop-color="#2AABEE"/>
<stop offset="1" stop-color="#229ED9"/>
</linearGradient>
<clipPath id="clip0_168_506">
<rect width="67" height="67" fill="white"/>
</clipPath>
</defs>
</svg>
