<svg xmlns="http://www.w3.org/2000/svg" xmlns:xlink="http://www.w3.org/1999/xlink" viewBox="0 0 580 203.49"><defs><style>.cls-1,.cls-11,.cls-6,.cls-9{fill:none;}.cls-2{clip-path:url(#clip-path);}.cls-12,.cls-3{fill:#ff7bac;}.cls-3,.cls-7,.cls-9{stroke:#754c24;}.cls-10,.cls-11,.cls-12,.cls-3,.cls-5,.cls-6,.cls-7,.cls-9{stroke-miterlimit:10;}.cls-10,.cls-11,.cls-3,.cls-7,.cls-9{stroke-width:2px;}.cls-4{fill:#754c24;}.cls-5{fill:red;}.cls-10,.cls-11,.cls-5,.cls-6{stroke:#000;}.cls-7,.cls-8{fill:#fff0de;}.cls-12{stroke:#ff7bac;}</style><clipPath id="clip-path"><rect class="cls-1" y="1.3" width="580" height="201"/></clipPath></defs><g id="Слой_2" data-name="Слой 2"><g id="Слой_1-2" data-name="Слой 1"><g class="cls-2"><path class="cls-3" d="M188,108.18l-22.3,94.14a.23.23,0,0,1-.22.17H30.11a.21.21,0,0,1-.21-.17L6.52,108.59a.22.22,0,0,1,.21-.27l181-.41A.22.22,0,0,1,188,108.18Z"/><path class="cls-4" d="M132.32,202.66l11.83-47.46-46.9,12.27-46.74-13.6,12.17,48.79"/><path class="cls-5" d="M94.88,28.22a7.16,7.16,0,1,0-7.16-7.15A7.16,7.16,0,0,0,94.88,28.22Z"/><path class="cls-6" d="M80.37,6.29c5.95-5.67,11.51,8.33,11.51,8.33"/><path class="cls-7" d="M149.05,82.56c-1.93,1.27-69.42,10.21-71.83,9.49S46.31,79.72,46.31,79.72,43.63,88.5,44.64,87L24.45,81.36c0-12.27,10.74-22.11,16.26-28l.4-.4c1.14-1.2,1.82-1.84,1.82-1.84-4.89-47,13-45.3,13-45.3L65.47,29c16.38-10.62,54.88-11,54.88-11-.64-4.25,7-16.59,7-16.59,14.88,8.93,20.29,58.58,20.29,58.58l2.6,1.21S151,81.25,149.05,82.56Z"/><path class="cls-8" d="M188,108.07c1-3.44-17.12-10-19-25.22-1.51-12-7.32-26.56-13.15-26.49a21.72,21.72,0,0,0-2.91.11h-.26a2.65,2.65,0,0,0-.68.14h-.12c-8.41,2.06-7.76,18.54-23.89,24.83-16.3,6.34-62.28-.28-78.36-4-1.46-.34-4.24-1.14-5.17-1.41-4.38-1.17-13.87,1.76-20.3,5.21C15.6,85.85,3,92.35,6.41,108.42l90.8,18.07L188,108l-45.57,49"/><path class="cls-9" d="M188,108.07c1-3.44-17.12-10-19-25.22-1.51-12-7.32-26.56-13.15-26.49a21.72,21.72,0,0,0-2.91.11h-.26a2.65,2.65,0,0,0-.68.14h-.12c-8.41,2.06-7.76,18.54-23.89,24.83-16.3,6.34-62.28-.28-78.36-4-1.46-.34-4.24-1.14-5.17-1.41-4.38-1.17-13.87,1.76-20.3,5.21C15.6,85.85,3,92.35,6.41,108.42l90.8,18.07,89.43-18.2a.45.45,0,0,1,.42.74l-44.62,48"/><path class="cls-9" d="M67.51,80.73s13.7-25.12,2.29-29.45-20.95,9.39-27.4,24.6"/><path class="cls-10" d="M86.05,50.56a1.67,1.67,0,1,0-1.67-1.67A1.67,1.67,0,0,0,86.05,50.56Z"/><path class="cls-10" d="M130.31,48a1.67,1.67,0,1,0-1.67-1.67A1.67,1.67,0,0,0,130.31,48Z"/><path class="cls-11" d="M97,49.31s6.77,5.6,13.33-2.17c0,0,8.9,6.28,11.26-2.09"/><path class="cls-12" d="M155.1,62.33a1.21,1.21,0,1,0-1.21-1.21A1.21,1.21,0,0,0,155.1,62.33Z"/><path class="cls-12" d="M149.05,67.87a1.21,1.21,0,1,0-1.21-1.2A1.21,1.21,0,0,0,149.05,67.87Z"/><path class="cls-12" d="M159.28,69.09a1.21,1.21,0,1,0-1.21-1.21A1.21,1.21,0,0,0,159.28,69.09Z"/><path class="cls-8" d="M217.05,102.43V115.9a4.31,4.31,0,0,1-1.31,3.13,4.71,4.71,0,0,1-6.43,0,4.35,4.35,0,0,1-1-1.4,4.14,4.14,0,0,1-.34-1.73V91.71a4.3,4.3,0,0,1,.36-1.74,4.19,4.19,0,0,1,.95-1.4,4.46,4.46,0,0,1,1.46-.92,4.81,4.81,0,0,1,2.63-.26,4.66,4.66,0,0,1,2.35,1.18l9.3,9.09,9.2-9.09a4.58,4.58,0,0,1,1.51-.92l.25-.13a2.39,2.39,0,0,0,.65-.11,3.22,3.22,0,0,1,.81-.11,4.46,4.46,0,0,1,1.77.34,4.78,4.78,0,0,1,1.46.93,4.32,4.32,0,0,1,1,1.43,4.17,4.17,0,0,1,.33,1.71V115.9a4.24,4.24,0,0,1-.33,1.69,4.41,4.41,0,0,1-1,1.44,5,5,0,0,1-1.46.93,4.65,4.65,0,0,1-1.77.34,4.58,4.58,0,0,1-1.75-.34,4.68,4.68,0,0,1-1.44-.93,4.32,4.32,0,0,1-1-1.4,4,4,0,0,1-.36-1.73V102.47L228.29,107a4.1,4.1,0,0,1-1.54,1,6.1,6.1,0,0,1-1.69.33,5.06,5.06,0,0,1-1.77-.34,4.42,4.42,0,0,1-1.53-1Z"/><path class="cls-8" d="M258.48,111.53a2,2,0,0,0,.57.54,3.87,3.87,0,0,0,.79.39,5.62,5.62,0,0,0,1.86.3,4.42,4.42,0,0,0,1.35-.2,7.31,7.31,0,0,1,2.32-.41,4.26,4.26,0,0,1,2,.44,4.83,4.83,0,0,1,1.35,1.11,4.14,4.14,0,0,1,.77,1.43,4.35,4.35,0,0,1,.25,1.43,3.11,3.11,0,0,1-.8,2.15,6.07,6.07,0,0,1-2.14,1.47,12,12,0,0,1-2.95.85,20.31,20.31,0,0,1-3.3.27,11.86,11.86,0,0,1-4.78-1A12.94,12.94,0,0,1,249,113.7a11.66,11.66,0,0,1-1-4.86,11.89,11.89,0,0,1,1-4.91,12.47,12.47,0,0,1,2.81-4A13.19,13.19,0,0,1,256,97.25a13,13,0,0,1,5-1,12.81,12.81,0,0,1,4.93,1,13.47,13.47,0,0,1,4.1,2.62,12.61,12.61,0,0,1,2.82,3.94,11.88,11.88,0,0,1,1.11,4.82,3,3,0,0,1-.35,1.53,2.38,2.38,0,0,1-1,.9,4.37,4.37,0,0,1-1.46.42,16.21,16.21,0,0,1-1.84.1Zm5.93-4.89L264,106a2.15,2.15,0,0,0-.54-.66,2.79,2.79,0,0,0-.87-.46,4.4,4.4,0,0,0-1.35-.18,4.12,4.12,0,0,0-1.35.19,2.54,2.54,0,0,0-.84.49,2.5,2.5,0,0,0-.5.66c-.12.23-.23.44-.32.65Z"/><path class="cls-8" d="M286.21,110.67v4.89a5.54,5.54,0,0,1-.32,1.85,4.68,4.68,0,0,1-.91,1.5,4.24,4.24,0,0,1-1.47,1,4.29,4.29,0,0,1-1.76.35,4.94,4.94,0,0,1-1.86-.37,4.81,4.81,0,0,1-1.5-1,4.64,4.64,0,0,1-1-1.53,4.76,4.76,0,0,1-.36-1.82V99.44a3.65,3.65,0,0,1,.38-1.41,3.56,3.56,0,0,1,.89-1.15l.44-.39a4.78,4.78,0,0,1,1.46-.89,4.7,4.7,0,0,1,5,1.1l6.28,6.26,6.46-6.29a4.61,4.61,0,0,1,1.51-1,3.84,3.84,0,0,1,1.74-.34,4.75,4.75,0,0,1,1.93.38,5.36,5.36,0,0,1,1.54,1,4.81,4.81,0,0,1,1,1.5A4.39,4.39,0,0,1,306,100v15.63a4.34,4.34,0,0,1-.38,1.84,4.49,4.49,0,0,1-1,1.47,4.72,4.72,0,0,1-1.5,1,4.93,4.93,0,0,1-1.86.36,4.31,4.31,0,0,1-1.74-.33,4.33,4.33,0,0,1-2.4-2.47,5.48,5.48,0,0,1-.32-1.84v-5.23l-2.07,2.14a4.55,4.55,0,0,1-5.24,1,4.68,4.68,0,0,1-1.61-1.14Z"/><path class="cls-8" d="M333,96.3a4,4,0,0,1,1.67.36,4.43,4.43,0,0,1,1.35,1,4.87,4.87,0,0,1,1,1.46,4.56,4.56,0,0,1,.34,1.79V112a4.44,4.44,0,0,1,1.43.51,5,5,0,0,1,1.16.94,4.62,4.62,0,0,1,1.14,2.88v5.4a4.4,4.4,0,0,1-.36,1.76,4.6,4.6,0,0,1-2.37,2.42,4.25,4.25,0,0,1-1.75.36,4.36,4.36,0,0,1-1.78-.36,4.57,4.57,0,0,1-2.42-2.42,4.4,4.4,0,0,1-.36-1.76v-.59H321.08v.59a4.4,4.4,0,0,1-.35,1.79,4.5,4.5,0,0,1-1,1.43,4.7,4.7,0,0,1-1.43,1,4.48,4.48,0,0,1-3.52,0,4.79,4.79,0,0,1-1.45-1,4.67,4.67,0,0,1-1-1.43,4.38,4.38,0,0,1-.37-1.79V116.3a4.46,4.46,0,0,1,.39-1.73,4.7,4.7,0,0,1,1-1.39,4.48,4.48,0,0,1,1.44-.92,4.78,4.78,0,0,1,1.79-.34,5.15,5.15,0,0,0,1-.08,1.66,1.66,0,0,0,.69-.27,1.08,1.08,0,0,0,.39-.55,3.44,3.44,0,0,0,.16-1v-9a4.78,4.78,0,0,1,.64-2.48L320,98l.25-.29A4.26,4.26,0,0,1,321,97a4.55,4.55,0,0,1,.94-.46l.36-.1a1.7,1.7,0,0,0,.45-.08,2.47,2.47,0,0,1,.53-.1Zm-6.1,13.81a5,5,0,0,1-.12,1,9.7,9.7,0,0,1-.28,1H329v-6.48h-2.2Z"/><path class="cls-8" d="M345,100.07a4.77,4.77,0,0,1,.76-2.62,4.67,4.67,0,0,1,2-1.77,4.56,4.56,0,0,1,1.81-.38,4.47,4.47,0,0,1,1.8.38,4.36,4.36,0,0,1,1.42,1,4.61,4.61,0,0,1,.94,1.52,5.31,5.31,0,0,1,.33,1.85v4.33l6.49-7.26a6.09,6.09,0,0,1,1.67-1.32,4.16,4.16,0,0,1,2.07-.52,4.51,4.51,0,0,1,1.81.37,4.63,4.63,0,0,1,1.49,1,4.76,4.76,0,0,1,1,1.51,4.59,4.59,0,0,1,.38,1.86v15.48a4.83,4.83,0,0,1-.74,2.62,4.56,4.56,0,0,1-3.87,2.13,4,4,0,0,1-1.75-.37,3.75,3.75,0,0,1-1.31-1,4.11,4.11,0,0,1-.8-1.5,6.49,6.49,0,0,1-.27-1.86v-4.73l-6.9,7.67a5.52,5.52,0,0,1-.73.72,3.55,3.55,0,0,1-.8.52.77.77,0,0,1-.35.27,2.74,2.74,0,0,1-.62.18c-.22,0-.43.07-.65.09h-.52a4.59,4.59,0,0,1-1.82-.37,4.72,4.72,0,0,1-1.48-1,4.35,4.35,0,0,1-1-1.49,4.75,4.75,0,0,1-.37-1.86Z"/><path class="cls-8" d="M391.28,105.15v10.67a4.18,4.18,0,0,1-.38,1.77,4.43,4.43,0,0,1-1,1.41,4.85,4.85,0,0,1-1.53,1,5.23,5.23,0,0,1-1.88.35,4.7,4.7,0,0,1-1.77-.32,4.3,4.3,0,0,1-1.48-1,4.44,4.44,0,0,1-1-1.41,4.5,4.5,0,0,1-.34-1.77V105.15h-4.2a5.65,5.65,0,0,1-1.87-.32,4.69,4.69,0,0,1-1.5-.9,4.25,4.25,0,0,1-1-1.35,3.89,3.89,0,0,1-.37-1.7,4.44,4.44,0,0,1,.37-1.83,4.62,4.62,0,0,1,1-1.45,4.81,4.81,0,0,1,1.5-1,5,5,0,0,1,1.87-.34h17.44a5,5,0,0,1,1.87.35,4.82,4.82,0,0,1,2.58,2.44,4.43,4.43,0,0,1,.38,1.79,3.82,3.82,0,0,1-.38,1.72,4.11,4.11,0,0,1-1,1.34,4.71,4.71,0,0,1-1.54.88,5.93,5.93,0,0,1-1.87.33Z"/><path class="cls-8" d="M411,111.53a2,2,0,0,0,.55.54,4.06,4.06,0,0,0,.75.38,5.23,5.23,0,0,0,1.79.31,4.11,4.11,0,0,0,1.3-.21,7,7,0,0,1,2.22-.4,4,4,0,0,1,1.95.44,4.43,4.43,0,0,1,1.33,1.11,4.28,4.28,0,0,1,.76,1.43,5.3,5.3,0,0,1,.25,1.43,3.25,3.25,0,0,1-.78,2.15,5.7,5.7,0,0,1-2,1.47,11.26,11.26,0,0,1-2.83.85,19,19,0,0,1-3.19.27,11.1,11.1,0,0,1-4.6-1,12.53,12.53,0,0,1-3.85-2.68A12.79,12.79,0,0,1,402,113.7a12.14,12.14,0,0,1-1-4.86,12.35,12.35,0,0,1,1-4.91,12.5,12.5,0,0,1,2.7-4,12.91,12.91,0,0,1,4-2.66,12.24,12.24,0,0,1,4.84-1,11.9,11.9,0,0,1,4.75,1,12.52,12.52,0,0,1,6.66,6.56,12.35,12.35,0,0,1,1.07,4.83,3.1,3.1,0,0,1-.33,1.52,2.44,2.44,0,0,1-.93.9,3.9,3.9,0,0,1-1.41.42,13.13,13.13,0,0,1-1.77.1Zm5.7-4.9-.39-.66a2.19,2.19,0,0,0-.52-.65,2.67,2.67,0,0,0-.84-.47,4.09,4.09,0,0,0-1.3-.18,3.78,3.78,0,0,0-1.29.2,2.18,2.18,0,0,0-.81.49,2.58,2.58,0,0,0-.49.65,5.43,5.43,0,0,0-.3.66Z"/><path class="cls-8" d="M430,108.21a11.61,11.61,0,0,1,1.1-4.63,12.64,12.64,0,0,1,6.68-6.35A12.5,12.5,0,0,1,454,103.86a11.89,11.89,0,0,1,0,9.5,12.44,12.44,0,0,1-6.64,6.53,12.21,12.21,0,0,1-4.85,1,11.45,11.45,0,0,1-1.75-.13c-.56-.08-1.12-.19-1.68-.32v4.23a5,5,0,0,1-.32,1.83,4.39,4.39,0,0,1-.9,1.47,3.88,3.88,0,0,1-1.41,1,4.59,4.59,0,0,1-3.61,0,4.53,4.53,0,0,1-1.48-1,4.91,4.91,0,0,1-1-1.47,4.44,4.44,0,0,1-.37-1.83Zm9.12.41a2.92,2.92,0,0,0,.28,1.29,3.53,3.53,0,0,0,3.12,2,3.48,3.48,0,0,0,1.86-.54,3.14,3.14,0,0,0,1.52-2.73,3.3,3.3,0,0,0-.26-1.29,3.35,3.35,0,0,0-1.26-1.45,3.38,3.38,0,0,0-1.86-.53,3.14,3.14,0,0,0-1.28.25,3.49,3.49,0,0,0-1.08.69,3.36,3.36,0,0,0-.76,1A2.86,2.86,0,0,0,439.12,108.62Z"/><path class="cls-8" d="M469.46,105a2.62,2.62,0,0,0-1.16.44,4,4,0,0,0-1.49,1.91,2.73,2.73,0,0,0,0,2,4.4,4.4,0,0,0,1.49,2,2.33,2.33,0,0,0,1.16.42l.4,0h.41a2.74,2.74,0,0,0,.81-.12,4,4,0,0,0,1-.52c.3-.23.61-.46.93-.68a11.27,11.27,0,0,1,1-.61,5.21,5.21,0,0,1,1.09-.45,3.55,3.55,0,0,1,1.16-.17,4.16,4.16,0,0,1,1.44.3,5.48,5.48,0,0,1,2.76,2.36,4,4,0,0,1,.5,2,4.94,4.94,0,0,1-.46,2.1,6.88,6.88,0,0,1-1.25,1.81,9.07,9.07,0,0,1-1.85,1.47,13.34,13.34,0,0,1-2.24,1.11,14.77,14.77,0,0,1-2.42.68,12.36,12.36,0,0,1-2.43.24,13.88,13.88,0,0,1-5.17-1,13.31,13.31,0,0,1-4.22-2.69,13.11,13.11,0,0,1-2.87-4,12.28,12.28,0,0,1-1.09-5.06,13.08,13.08,0,0,1,1.05-5.21,13.35,13.35,0,0,1,16-7.5,12.39,12.39,0,0,1,3.43,1.52A9,9,0,0,1,480,99.69a5.15,5.15,0,0,1,1,3.08,4,4,0,0,1-.49,2,5.26,5.26,0,0,1-1.19,1.46,5.37,5.37,0,0,1-1.52.92,4.24,4.24,0,0,1-1.45.32,3.81,3.81,0,0,1-1.2-.19,5.64,5.64,0,0,1-1.1-.48,7.76,7.76,0,0,1-1-.68l-.93-.68a3.93,3.93,0,0,0-1-.48,4.28,4.28,0,0,0-.8-.11h-.41Z"/><path class="cls-8" d="M501.22,106.18l5.55,6.36a4.65,4.65,0,0,1,.92,1.48,4.54,4.54,0,0,1-.05,3.42,4.76,4.76,0,0,1-1,1.47,4.65,4.65,0,0,1-1.47,1,4.47,4.47,0,0,1-1.8.38,4.66,4.66,0,0,1-1.77-.36,4.34,4.34,0,0,1-1.56-1.08l-5.7-6.57-.18.16v3.23a4.48,4.48,0,0,1-1.32,3.2,4.29,4.29,0,0,1-1.43,1,4.53,4.53,0,0,1-1.78.36,4.81,4.81,0,0,1-1.83-.36,4.59,4.59,0,0,1-2.45-2.41,4.31,4.31,0,0,1-.36-1.77V100.05a4.37,4.37,0,0,1,.37-1.78,4.46,4.46,0,0,1,1-1.45,4.56,4.56,0,0,1,1.47-1,4.62,4.62,0,0,1,1.79-.36,4.53,4.53,0,0,1,1.78.36,4.41,4.41,0,0,1,1.47,1,4.59,4.59,0,0,1,1,1.45,4.71,4.71,0,0,1,.35,1.78v.13l4.51-3.67a4.73,4.73,0,0,1,1.47-.9,4.47,4.47,0,0,1,1.65-.31,4.59,4.59,0,0,1,3.22,1.34,4.66,4.66,0,0,1,1,1.44,4.42,4.42,0,0,1,.37,1.79,4.48,4.48,0,0,1-.36,1.77,4.26,4.26,0,0,1-1.08,1.54Z"/><path class="cls-8" d="M510,108.84a11.62,11.62,0,0,1,1-4.85A13.24,13.24,0,0,1,518,97.28,13.21,13.21,0,0,1,532.17,100a12.75,12.75,0,0,1,2.8,4,11.61,11.61,0,0,1,1,4.85v7.56a4.47,4.47,0,0,1-.38,1.8,4.55,4.55,0,0,1-1,1.47,5.28,5.28,0,0,1-1.55,1,4.9,4.9,0,0,1-1.89.37,4.51,4.51,0,0,1-3-1.08,11.44,11.44,0,0,1-2.46,1,10.38,10.38,0,0,1-2.66.34,12.84,12.84,0,0,1-5-1,13.07,13.07,0,0,1-7-6.64A11.53,11.53,0,0,1,510,108.84Zm9.5,0a2.85,2.85,0,0,0,.29,1.31,3.6,3.6,0,0,0,3.22,2,3.75,3.75,0,0,0,1.37-.26,3.79,3.79,0,0,0,1.13-.71,3.2,3.2,0,0,0,.77-3.68,3.28,3.28,0,0,0-.77-1,3.79,3.79,0,0,0-1.13-.71,3.74,3.74,0,0,0-1.37-.25,3.55,3.55,0,0,0-3.22,2A2.86,2.86,0,0,0,519.5,108.84Z"/><path class="cls-8" d="M547.84,119.88a4.59,4.59,0,0,1-1.55,1.07,4.66,4.66,0,0,1-1.77.35,4.2,4.2,0,0,1-1.74-.38,4.86,4.86,0,0,1-2.47-2.52,4.48,4.48,0,0,1-.37-1.84,4.85,4.85,0,0,1,.34-1.81,4.91,4.91,0,0,1,1-1.58l.47-.4a10.33,10.33,0,0,1-2-3.12,9.72,9.72,0,0,1-.74-3.81,10.65,10.65,0,0,1,.79-4.1,11,11,0,0,1,2.15-3.36,10.24,10.24,0,0,1,3.21-2.25,9.39,9.39,0,0,1,3.94-.83h6.17a4.39,4.39,0,0,1,1.85.39,5,5,0,0,1,1.5,1.07,4.87,4.87,0,0,1,1,1.54,5,5,0,0,1,.37,1.91v16a4.9,4.9,0,0,1-1.39,3.46,4.7,4.7,0,0,1-1.5,1,4.55,4.55,0,0,1-1.85.39,4.38,4.38,0,0,1-1.64-.31,4.08,4.08,0,0,1-1.33-.85,5.12,5.12,0,0,1-.95-1.3,5.41,5.41,0,0,1-.5-1.63Zm1.48-15.27a1.65,1.65,0,0,0-.32,0,1.26,1.26,0,0,0-.38.15,1,1,0,0,0-.3.28.78.78,0,0,0-.11.44.71.71,0,0,0,.12.45,1,1,0,0,0,.3.31,1.29,1.29,0,0,0,.35.18,1.12,1.12,0,0,0,.31.05h1.52v-1.9Z"/><path class="cls-12" d="M154.38,75.58A2.37,2.37,0,1,0,152,73.21,2.37,2.37,0,0,0,154.38,75.58Z"/><path class="cls-12" d="M66.87,56.66a1.41,1.41,0,1,0-1.41-1.4A1.4,1.4,0,0,0,66.87,56.66Z"/><path class="cls-12" d="M59,60.86a1.41,1.41,0,1,0-1.4-1.41A1.41,1.41,0,0,0,59,60.86Z"/><path class="cls-12" d="M68,65.28a1.41,1.41,0,1,0-1.41-1.4A1.4,1.4,0,0,0,68,65.28Z"/><path class="cls-12" d="M60.23,70.8a2.76,2.76,0,1,0-2.75-2.75A2.75,2.75,0,0,0,60.23,70.8Z"/><path class="cls-9" d="M51.87,155.2,6.41,108.49"/></g></g></g></svg>