<svg xmlns="http://www.w3.org/2000/svg" xmlns:xlink="http://www.w3.org/1999/xlink" viewBox="0 0 560 201"><defs><style>.cls-1,.cls-11,.cls-6,.cls-9{fill:none;}.cls-2{clip-path:url(#clip-path);}.cls-12,.cls-13,.cls-3{fill:#ff7bac;}.cls-3,.cls-7,.cls-9{stroke:#754c24;}.cls-10,.cls-11,.cls-12,.cls-3,.cls-5,.cls-6,.cls-7,.cls-9{stroke-miterlimit:10;}.cls-10,.cls-11,.cls-3,.cls-7,.cls-9{stroke-width:2px;}.cls-4{fill:#754c24;}.cls-5{fill:red;}.cls-10,.cls-11,.cls-5,.cls-6{stroke:#000;}.cls-7,.cls-8{fill:#fff0de;}.cls-12{stroke:#ff7bac;}</style><clipPath id="clip-path"><rect class="cls-1" width="560" height="201"/></clipPath></defs><g id="Слой_2" data-name="Слой 2"><g id="Слой_1-2" data-name="Слой 1"><g class="cls-2"><path class="cls-3" d="M188,106.61l-22.4,94.58H29.94L6.46,107Z"/><path class="cls-4" d="M132.32,201.36l11.83-47.46-46.9,12.27-46.74-13.6,12.17,48.79"/><path class="cls-5" d="M94.88,26.92a7.15,7.15,0,1,0-7.16-7.15A7.16,7.16,0,0,0,94.88,26.92Z"/><path class="cls-6" d="M80.37,5c5.95-5.67,11.51,8.33,11.51,8.33"/><path class="cls-7" d="M149.05,81.26c-1.93,1.27-69.42,10.21-71.83,9.49S46.31,78.43,46.31,78.43s-2.68,8.77-1.67,7.29L24.45,80.06c0-12.27,10.74-22.1,16.26-28l.4-.4c1.14-1.19,1.82-1.84,1.82-1.84C38,2.8,55.9,4.5,55.9,4.5l9.57,23.17c16.38-10.62,54.88-11,54.88-11-.64-4.26,7-16.59,7-16.59C142.25,9,147.66,58.65,147.66,58.65l2.6,1.2S151,80,149.05,81.26Z"/><path class="cls-8" d="M188,106.78c1-3.44-17.12-10.06-19-25.23-1.51-12-7.32-26.56-13.15-26.48a21.72,21.72,0,0,0-2.91.1h-.26a2.67,2.67,0,0,0-.68.15h-.12c-8.41,2-7.76,18.53-23.89,24.82-16.3,6.34-62.28-.28-78.36-4-1.46-.34-4.24-1.14-5.17-1.41-4.38-1.17-13.87,1.76-20.3,5.21C15.6,84.56,3,91.05,6.41,107.12l90.8,18.07L188,106.71l-45.57,49"/><path class="cls-9" d="M188,106.78c1-3.44-17.12-10.06-19-25.23-1.51-12-7.32-26.56-13.15-26.48a21.72,21.72,0,0,0-2.91.1h-.26a2.67,2.67,0,0,0-.68.15h-.12c-8.41,2-7.76,18.53-23.89,24.82-16.3,6.34-62.28-.28-78.36-4-1.46-.34-4.24-1.14-5.17-1.41-4.38-1.17-13.87,1.76-20.3,5.21C15.6,84.56,3,91.05,6.41,107.12l90.8,18.07L188,106.71l-45.57,49"/><path class="cls-9" d="M67.51,79.43S81.21,54.31,69.8,50,48.85,59.37,42.4,74.58"/><path class="cls-10" d="M86.05,49.26a1.67,1.67,0,1,0-1.67-1.66A1.66,1.66,0,0,0,86.05,49.26Z"/><path class="cls-10" d="M130.31,46.68A1.67,1.67,0,1,0,128.64,45,1.67,1.67,0,0,0,130.31,46.68Z"/><path class="cls-11" d="M97,48s6.77,5.6,13.33-2.16c0,0,8.9,6.27,11.26-2.1"/><path class="cls-12" d="M155.1,61a1.21,1.21,0,1,0-1.21-1.21A1.21,1.21,0,0,0,155.1,61Z"/><path class="cls-12" d="M149.05,66.58a1.21,1.21,0,1,0-1.21-1.21A1.21,1.21,0,0,0,149.05,66.58Z"/><path class="cls-12" d="M159.28,67.79a1.21,1.21,0,1,0-1.21-1.21A1.21,1.21,0,0,0,159.28,67.79Z"/><path class="cls-12" d="M154.38,74.28A2.37,2.37,0,1,0,152,71.91,2.37,2.37,0,0,0,154.38,74.28Z"/><path class="cls-12" d="M66.87,55.37A1.41,1.41,0,1,0,65.46,54,1.41,1.41,0,0,0,66.87,55.37Z"/><path class="cls-12" d="M59,59.56a1.41,1.41,0,1,0-1.4-1.4A1.41,1.41,0,0,0,59,59.56Z"/><path class="cls-12" d="M68,64a1.41,1.41,0,1,0-1.41-1.41A1.41,1.41,0,0,0,68,64Z"/><path class="cls-12" d="M60.23,69.51a2.76,2.76,0,1,0-2.75-2.76A2.76,2.76,0,0,0,60.23,69.51Z"/><path class="cls-9" d="M51.87,153.9,6.41,107.19"/><path class="cls-13" d="M217.05,101.13V114.6a4.31,4.31,0,0,1-1.31,3.13,4.67,4.67,0,0,1-6.43,0,4.24,4.24,0,0,1-1-1.4,4.14,4.14,0,0,1-.34-1.73V90.41a4.34,4.34,0,0,1,.36-1.74,4.29,4.29,0,0,1,.95-1.4,4.46,4.46,0,0,1,1.46-.92,4.81,4.81,0,0,1,2.63-.26,4.67,4.67,0,0,1,2.35,1.19l9.3,9.08,9.2-9.08a4.44,4.44,0,0,1,1.51-.93l.25-.12a3.53,3.53,0,0,0,.65-.11,3.24,3.24,0,0,1,.81-.12,4.65,4.65,0,0,1,1.77.34,4.78,4.78,0,0,1,1.46.93,4.26,4.26,0,0,1,1,1.44,4.12,4.12,0,0,1,.33,1.7V114.6a4.33,4.33,0,0,1-.33,1.7,4.47,4.47,0,0,1-1,1.43,5,5,0,0,1-1.46.94,4.84,4.84,0,0,1-1.77.33,4.77,4.77,0,0,1-1.75-.33,4.91,4.91,0,0,1-1.44-.94,4.22,4.22,0,0,1-1-1.4,4,4,0,0,1-.36-1.73V101.18l-4.67,4.55a4.1,4.1,0,0,1-1.54,1,5.45,5.45,0,0,1-1.69.33,4.84,4.84,0,0,1-1.77-.34,4.54,4.54,0,0,1-1.53-1Z"/><path class="cls-13" d="M258.48,110.23a2,2,0,0,0,.57.54,3.87,3.87,0,0,0,.79.39,5.62,5.62,0,0,0,1.86.3,4.13,4.13,0,0,0,1.35-.2,7.6,7.6,0,0,1,2.32-.41,4.27,4.27,0,0,1,2,.45,4.63,4.63,0,0,1,1.35,1.1,4.27,4.27,0,0,1,.77,1.44,4.33,4.33,0,0,1,.25,1.42,3.11,3.11,0,0,1-.8,2.15,6.07,6.07,0,0,1-2.14,1.47,11.6,11.6,0,0,1-2.95.85,20.31,20.31,0,0,1-3.3.27,11.86,11.86,0,0,1-4.78-1,12.79,12.79,0,0,1-4-2.67A13,13,0,0,1,249,112.4a11.66,11.66,0,0,1-1-4.86,11.89,11.89,0,0,1,1-4.91,12.47,12.47,0,0,1,2.81-4A13.23,13.23,0,0,1,261,95,12.81,12.81,0,0,1,266,96a13.47,13.47,0,0,1,4.1,2.62,12.72,12.72,0,0,1,2.82,3.94,11.89,11.89,0,0,1,1.11,4.83,3,3,0,0,1-.35,1.52,2.32,2.32,0,0,1-1,.9,4.15,4.15,0,0,1-1.46.42,14.18,14.18,0,0,1-1.84.1Zm5.93-4.89-.41-.66a2.11,2.11,0,0,0-.54-.65,2.62,2.62,0,0,0-.87-.47,4.4,4.4,0,0,0-1.35-.18,4.12,4.12,0,0,0-1.35.19,2.73,2.73,0,0,0-.84.49,2.67,2.67,0,0,0-.5.66c-.12.23-.23.44-.32.66Z"/><path class="cls-13" d="M286.21,109.37v4.89a5.64,5.64,0,0,1-.32,1.86,4.74,4.74,0,0,1-.91,1.49,4.24,4.24,0,0,1-1.47,1,4.29,4.29,0,0,1-1.76.35,4.75,4.75,0,0,1-1.86-.37,4.81,4.81,0,0,1-1.5-1,4.54,4.54,0,0,1-1-1.53,4.73,4.73,0,0,1-.36-1.82V98.14a3.65,3.65,0,0,1,.38-1.41,3.56,3.56,0,0,1,.89-1.15l.44-.38a4.81,4.81,0,0,1,1.46-.9,4.7,4.7,0,0,1,2.65-.18,4.64,4.64,0,0,1,2.32,1.28l6.28,6.26,6.46-6.29a4.94,4.94,0,0,1,1.51-1,4,4,0,0,1,1.74-.34,4.93,4.93,0,0,1,1.93.39,5.17,5.17,0,0,1,1.54,1,4.76,4.76,0,0,1,1,1.49,4.46,4.46,0,0,1,.38,1.79v15.63a4.34,4.34,0,0,1-.38,1.84,4.29,4.29,0,0,1-1,1.47,4.56,4.56,0,0,1-1.5,1,4.93,4.93,0,0,1-1.86.36,4.31,4.31,0,0,1-1.74-.33,4.33,4.33,0,0,1-2.4-2.47,5.48,5.48,0,0,1-.32-1.84v-5.23l-2.07,2.14a4.55,4.55,0,0,1-5.24,1,4.79,4.79,0,0,1-1.61-1.13Z"/><path class="cls-13" d="M333,95a3.82,3.82,0,0,1,1.67.35,4.47,4.47,0,0,1,1.35,1,4.7,4.7,0,0,1,1,1.45,4.59,4.59,0,0,1,.34,1.79V110.7a4.24,4.24,0,0,1,1.43.52,4.94,4.94,0,0,1,1.16.93,4.6,4.6,0,0,1,.81,1.32A4.68,4.68,0,0,1,341,115v5.41a4.39,4.39,0,0,1-.36,1.75,4.6,4.6,0,0,1-2.37,2.42,4.25,4.25,0,0,1-1.75.36,4.2,4.2,0,0,1-1.78-.36,4.48,4.48,0,0,1-2.42-2.42,4.39,4.39,0,0,1-.36-1.75v-.6H321.08v.6a4.38,4.38,0,0,1-.35,1.78,4.44,4.44,0,0,1-1,1.44,4.85,4.85,0,0,1-1.43,1,4.48,4.48,0,0,1-3.52,0,5,5,0,0,1-1.45-1,4.6,4.6,0,0,1-1-1.44,4.37,4.37,0,0,1-.37-1.78V115a4.45,4.45,0,0,1,.39-1.72,4.45,4.45,0,0,1,2.43-2.32,4.78,4.78,0,0,1,1.79-.34,5.15,5.15,0,0,0,1-.08,1.43,1.43,0,0,0,.69-.27,1,1,0,0,0,.39-.55,3.44,3.44,0,0,0,.16-1v-9a4.72,4.72,0,0,1,.64-2.47l.44-.57.25-.29a3.86,3.86,0,0,1,.8-.65,4.13,4.13,0,0,1,.94-.47l.36-.1a1.7,1.7,0,0,0,.45-.08,3.29,3.29,0,0,1,.53-.1Zm-6.1,13.81a5.15,5.15,0,0,1-.12,1c-.08.32-.17.64-.28,1H329v-6.48h-2.2Z"/><path class="cls-13" d="M345,98.78a4.77,4.77,0,0,1,.76-2.62,4.7,4.7,0,0,1,2-1.78,4.38,4.38,0,0,1,1.81-.37,4.3,4.3,0,0,1,1.8.37,4.25,4.25,0,0,1,1.42,1,4.47,4.47,0,0,1,.94,1.51,5.32,5.32,0,0,1,.33,1.86v4.32l6.49-7.26a6.28,6.28,0,0,1,1.67-1.32,4.16,4.16,0,0,1,2.07-.52,4.69,4.69,0,0,1,1.81.37,4.63,4.63,0,0,1,1.49,1,4.88,4.88,0,0,1,1,1.51,4.59,4.59,0,0,1,.38,1.86v15.49a4.82,4.82,0,0,1-.74,2.61,4.69,4.69,0,0,1-2.06,1.76,4.51,4.51,0,0,1-1.81.37,4,4,0,0,1-1.75-.37,3.75,3.75,0,0,1-1.31-1,4.11,4.11,0,0,1-.8-1.5,6.42,6.42,0,0,1-.27-1.85v-4.74l-6.9,7.67a5.52,5.52,0,0,1-.73.72,3.55,3.55,0,0,1-.8.52.71.71,0,0,1-.35.27,2.77,2.77,0,0,1-.62.19,4.81,4.81,0,0,1-.65.08h-.52a4.42,4.42,0,0,1-1.82-.37,4.86,4.86,0,0,1-1.48-1,4.49,4.49,0,0,1-1-1.5,4.75,4.75,0,0,1-.37-1.86Z"/><path class="cls-13" d="M391.28,103.85v10.67a4.14,4.14,0,0,1-.38,1.77,4.58,4.58,0,0,1-1,1.42,5.08,5.08,0,0,1-3.41,1.29,4.7,4.7,0,0,1-1.77-.32,4.27,4.27,0,0,1-1.48-1,4.37,4.37,0,0,1-1-1.42,4.46,4.46,0,0,1-.34-1.77V103.85h-4.2a5.18,5.18,0,0,1-1.87-.32,4.85,4.85,0,0,1-1.5-.89,4.4,4.4,0,0,1-1-1.36,3.89,3.89,0,0,1-.37-1.7,4.36,4.36,0,0,1,.37-1.82,4.51,4.51,0,0,1,1-1.45,4.84,4.84,0,0,1,1.5-1,5.16,5.16,0,0,1,1.87-.34h17.44a5,5,0,0,1,1.87.36,4.78,4.78,0,0,1,2.58,2.44,4.38,4.38,0,0,1,.38,1.78,3.82,3.82,0,0,1-.38,1.72,4.25,4.25,0,0,1-1,1.35,4.87,4.87,0,0,1-1.54.87,5.93,5.93,0,0,1-1.87.33Z"/><path class="cls-13" d="M411,110.23a2,2,0,0,0,.55.54,3.56,3.56,0,0,0,.75.39,5.47,5.47,0,0,0,1.79.3,4.11,4.11,0,0,0,1.3-.21,7,7,0,0,1,2.22-.4,4,4,0,0,1,1.95.44,4.43,4.43,0,0,1,1.33,1.11,4.28,4.28,0,0,1,.76,1.43,5.44,5.44,0,0,1,.25,1.43,3.23,3.23,0,0,1-.78,2.15,5.58,5.58,0,0,1-2,1.47,10.86,10.86,0,0,1-2.83.85,19,19,0,0,1-3.19.27,11.1,11.1,0,0,1-4.6-1,12.33,12.33,0,0,1-3.85-2.67A13,13,0,0,1,402,112.4a12.11,12.11,0,0,1-1-4.86,12.49,12.49,0,0,1,3.69-8.9,12.76,12.76,0,0,1,4-2.67,12.24,12.24,0,0,1,4.84-1,11.9,11.9,0,0,1,4.75,1,12.52,12.52,0,0,1,6.66,6.56,12.35,12.35,0,0,1,1.07,4.83,3.07,3.07,0,0,1-.33,1.52,2.37,2.37,0,0,1-.93.9,3.9,3.9,0,0,1-1.41.42,13.14,13.14,0,0,1-1.77.11Zm5.7-4.9-.39-.65a2.24,2.24,0,0,0-.52-.66,2.88,2.88,0,0,0-.84-.47,4.38,4.38,0,0,0-1.3-.17,3.77,3.77,0,0,0-1.29.19,2.32,2.32,0,0,0-.81.49,2.47,2.47,0,0,0-.49.66,6.11,6.11,0,0,0-.3.65Z"/><path class="cls-13" d="M430,106.91a11.65,11.65,0,0,1,1.1-4.63,12.68,12.68,0,0,1,6.68-6.35,12.51,12.51,0,0,1,4.8-.93,12.73,12.73,0,0,1,4.79,1,12.52,12.52,0,0,1,4,2.65,12.69,12.69,0,0,1,2.68,3.94,11.91,11.91,0,0,1,0,9.51,12.46,12.46,0,0,1-6.64,6.52,12.21,12.21,0,0,1-4.85,1,12.87,12.87,0,0,1-1.75-.12,16.61,16.61,0,0,1-1.68-.33v4.23a5,5,0,0,1-.32,1.83,4.39,4.39,0,0,1-.9,1.47,3.88,3.88,0,0,1-1.41,1,4.59,4.59,0,0,1-3.61,0,4.53,4.53,0,0,1-1.48-1,4.79,4.79,0,0,1-1-1.47,4.44,4.44,0,0,1-.37-1.83Zm9.12.41a2.92,2.92,0,0,0,.28,1.29,3.21,3.21,0,0,0,.76,1,3.41,3.41,0,0,0,2.36,1,3.38,3.38,0,0,0,3.12-2,3.3,3.3,0,0,0-3.12-4.56,3.41,3.41,0,0,0-2.36,1,3.21,3.21,0,0,0-.76,1A2.86,2.86,0,0,0,439.12,107.32Z"/><path class="cls-13" d="M469.46,103.65a2.62,2.62,0,0,0-1.16.44,4,4,0,0,0-1.49,1.92,2.73,2.73,0,0,0-.2,1,2.76,2.76,0,0,0,.2,1,4.27,4.27,0,0,0,.59,1.09,4.22,4.22,0,0,0,.9.89,2.33,2.33,0,0,0,1.16.42l.4,0h.41a2.74,2.74,0,0,0,.81-.12,3.7,3.7,0,0,0,1-.52c.3-.23.61-.45.93-.68a9.26,9.26,0,0,1,1-.6,5.24,5.24,0,0,1,1.09-.46,3.83,3.83,0,0,1,1.16-.17,4,4,0,0,1,1.44.31,5.19,5.19,0,0,1,1.54.9,5.37,5.37,0,0,1,1.22,1.46,3.89,3.89,0,0,1,.5,2,4.91,4.91,0,0,1-.46,2.1,6.88,6.88,0,0,1-1.25,1.81,8.74,8.74,0,0,1-1.85,1.47,13.34,13.34,0,0,1-2.24,1.11,13.84,13.84,0,0,1-2.42.68,12.36,12.36,0,0,1-2.43.24,13.68,13.68,0,0,1-5.17-1,12.9,12.9,0,0,1-7.09-6.73,12.25,12.25,0,0,1-1.09-5.06,13.11,13.11,0,0,1,1.05-5.21,13.25,13.25,0,0,1,12.3-8,13.74,13.74,0,0,1,3.67.53,12.39,12.39,0,0,1,3.43,1.52A9.07,9.07,0,0,1,480,98.4a5.1,5.1,0,0,1,1,3.07,4,4,0,0,1-.49,2,5.26,5.26,0,0,1-1.19,1.46,5.37,5.37,0,0,1-1.52.92,4.24,4.24,0,0,1-1.45.32,3.81,3.81,0,0,1-1.2-.19,5.64,5.64,0,0,1-1.1-.48,7.76,7.76,0,0,1-1-.68l-.93-.68a3.93,3.93,0,0,0-1-.48,3.58,3.58,0,0,0-.8-.1h-.41Z"/><path class="cls-13" d="M501.22,104.89l5.55,6.36a4.61,4.61,0,0,1,.92,1.47,4.52,4.52,0,0,1,.31,1.66,4.43,4.43,0,0,1-.36,1.76,4.76,4.76,0,0,1-1,1.47,4.65,4.65,0,0,1-1.47,1,4.31,4.31,0,0,1-1.8.38,4.48,4.48,0,0,1-1.77-.36,4.34,4.34,0,0,1-1.56-1.08l-5.7-6.57-.18.16v3.23a4.52,4.52,0,0,1-1.32,3.21,4.44,4.44,0,0,1-1.43,1,4.35,4.35,0,0,1-1.78.35,4.58,4.58,0,0,1-4.28-2.77,4.31,4.31,0,0,1-.36-1.77V98.75a4.37,4.37,0,0,1,.37-1.78,4.75,4.75,0,0,1,2.48-2.43,4.62,4.62,0,0,1,1.79-.36,4.53,4.53,0,0,1,1.78.36,4.41,4.41,0,0,1,1.47,1,4.58,4.58,0,0,1,1.31,3.23v.13l4.51-3.67a4.93,4.93,0,0,1,1.47-.9,4.47,4.47,0,0,1,1.65-.31,4.59,4.59,0,0,1,3.22,1.34,4.7,4.7,0,0,1,1,1.45,4.37,4.37,0,0,1,.37,1.78,4.48,4.48,0,0,1-.36,1.77,4.18,4.18,0,0,1-1.08,1.54Z"/><path class="cls-13" d="M510,107.54a11.62,11.62,0,0,1,1-4.85,13,13,0,0,1,2.82-4,13.17,13.17,0,0,1,18.31,0,12.75,12.75,0,0,1,2.8,4,11.61,11.61,0,0,1,1,4.85v7.56a4.47,4.47,0,0,1-.38,1.8,4.55,4.55,0,0,1-1,1.47,5.53,5.53,0,0,1-1.55,1,4.89,4.89,0,0,1-1.89.36,4.5,4.5,0,0,1-3-1.07,11.94,11.94,0,0,1-2.46,1A10.38,10.38,0,0,1,523,120a12.84,12.84,0,0,1-5-1,13,13,0,0,1-7-6.64A11.49,11.49,0,0,1,510,107.54Zm9.5,0a2.85,2.85,0,0,0,.29,1.31,3.5,3.5,0,0,0,1.89,1.76,3.58,3.58,0,0,0,1.33.26,3.75,3.75,0,0,0,1.37-.26,3.79,3.79,0,0,0,1.13-.71,3.17,3.17,0,0,0,.77-1.05,3.2,3.2,0,0,0,0-2.62,3.07,3.07,0,0,0-.77-1,3.79,3.79,0,0,0-1.13-.71,3.63,3.63,0,0,0-2.7,0,3.5,3.5,0,0,0-1.89,1.76A2.85,2.85,0,0,0,519.5,107.54Z"/><path class="cls-13" d="M547.84,118.58a4.45,4.45,0,0,1-1.55,1.07,4.66,4.66,0,0,1-1.77.35,4.2,4.2,0,0,1-1.74-.38,4.86,4.86,0,0,1-2.47-2.52,4.48,4.48,0,0,1-.37-1.84,4.79,4.79,0,0,1,1.37-3.39l.47-.4a10.33,10.33,0,0,1-2-3.12,9.71,9.71,0,0,1-.74-3.8,10.7,10.7,0,0,1,.79-4.11,10.92,10.92,0,0,1,2.15-3.35,10.11,10.11,0,0,1,3.21-2.26,9.39,9.39,0,0,1,3.94-.83h6.17a4.4,4.4,0,0,1,1.85.4,4.76,4.76,0,0,1,1.5,1.06A4.85,4.85,0,0,1,560,98.91v16a5,5,0,0,1-.37,1.92,5,5,0,0,1-1,1.54,4.7,4.7,0,0,1-1.5,1,4.55,4.55,0,0,1-1.85.39,4.19,4.19,0,0,1-1.64-.31,4.08,4.08,0,0,1-1.33-.85,5,5,0,0,1-.95-1.3,5.41,5.41,0,0,1-.5-1.63Zm1.48-15.26a1.12,1.12,0,0,0-.32,0,1,1,0,0,0-.38.14.92.92,0,0,0-.3.29.73.73,0,0,0-.11.43.74.74,0,0,0,.12.46,1.26,1.26,0,0,0,.3.31,1.62,1.62,0,0,0,.35.17,1.12,1.12,0,0,0,.31,0h1.52v-1.89Z"/></g></g></g></svg>