<svg xmlns="http://www.w3.org/2000/svg" viewBox="0 0 121.85 158.1"><defs><style>.cls-1{fill:#1a4222;}.cls-2{fill:#4ba134;}</style></defs><g id="Слой_2" data-name="Слой 2"><g id="Слой_1-2" data-name="Слой 1"><path class="cls-1" d="M76,17.51S83.6,36.18,50.87,48.73C33.09,55.55,19.44,73,35.74,100c1.35-12.06,7.14-38.66,32-44.72,0,0-23.17,8.66-25.22,47.89C54.47,104.84,82.4,106,90.69,81.73,101.64,49.71,76,17.51,76,17.51Z"/><path class="cls-2" d="M42.57,103A73.91,73.91,0,0,0,88.78,41.07,93.85,93.85,0,0,0,76,17.51S83.6,36.18,50.87,48.73C33.09,55.55,19.44,73,35.74,100c1.35-12.06,7.14-38.66,32-44.72C67.78,55.28,44.68,63.92,42.57,103Z"/><path class="cls-2" d="M75.9,17h0V11s2.25-5,5.93-6.09c.29-.09.32-.32.06-.49L75.23,0H49.76V6.94h0S66.45,6.52,75.9,17Z"/><polygon class="cls-2" points="47.97 0 47.97 6.95 44.4 6.95 44.4 5.85 43.5 5.85 43.5 0.49 44.44 0.49 44.44 0 47.97 0"/><path class="cls-2" d="M68.48,13.16l-14.68.11s-7,15.62-8.7,14c-1.49-1.42,4.66-1.83,4.66-19.38C49.76,7.27,64.43,8.85,68.48,13.16Z"/><path class="cls-1" d="M22.68,132.79,22,131.08a3.84,3.84,0,0,0-1.63-2,2.72,2.72,0,0,1-1.76-2.34q0-3.14,9.37-3.13a25.23,25.23,0,0,1,7.13.76,2.81,2.81,0,0,1,1.33.85,1.93,1.93,0,0,1,.5,1.3,1.56,1.56,0,0,1-.23.93,11,11,0,0,1-1.28,1.24,1.42,1.42,0,0,0-.61,1.07,8,8,0,0,0,.93,2.84l1.39,3a20.36,20.36,0,0,0,1.35,2.57,1,1,0,0,0,1.88-.08,13.62,13.62,0,0,0,1-2.49l1.17-3.42A7.63,7.63,0,0,0,43,130a1.27,1.27,0,0,0-1-1.29c-1.37-.44-2.05-1.22-2.05-2.35a2.18,2.18,0,0,1,1.58-2.1,15.49,15.49,0,0,1,5.23-.63,10,10,0,0,1,3.68.54,2.45,2.45,0,0,1,1.83,2.34,2.2,2.2,0,0,1-.32,1.22,7.37,7.37,0,0,1-1.34,1.37,4.61,4.61,0,0,0-1,1.19,23.33,23.33,0,0,0-1.08,2.62l-4.28,11.35q-3.19,7.94-3.85,9.45A25.27,25.27,0,0,1,39,156.4a3.37,3.37,0,0,1-1.2,1.23,3.79,3.79,0,0,1-1.76.35,4,4,0,0,1-2.35-.63,4.6,4.6,0,0,1-1.5-2.1l-4.84-11.48a6.09,6.09,0,0,0-.58-1.19.67.67,0,0,0-.54-.25,1.05,1.05,0,0,0-.88.61A31.64,31.64,0,0,0,24,146.09l-3.32,8.26a8.26,8.26,0,0,1-1.77,3,3.84,3.84,0,0,1-2.55.72,3.69,3.69,0,0,1-2.43-.73,6.31,6.31,0,0,1-1.63-2.59l-9-23a8.57,8.57,0,0,0-.77-1.67,5,5,0,0,0-1.3-.85A2.22,2.22,0,0,1,0,127.07q0-3.43,8.54-3.44a23.62,23.62,0,0,1,6.33.61,2.4,2.4,0,0,1,1.88,2.42,2.37,2.37,0,0,1-.1.82,7.78,7.78,0,0,1-.71,1.13,2.16,2.16,0,0,0-.29,1.15,17.38,17.38,0,0,0,1.64,5.08l1,2.34a14.16,14.16,0,0,0,.84,1.77.67.67,0,0,0,.6.31c.63,0,1.28-.91,1.95-2.71l1-2.79a1.3,1.3,0,0,0,.12-.46A1.52,1.52,0,0,0,22.68,132.79Z"/><path class="cls-1" d="M58,124.12H70.56c2.54,0,4.39-.05,5.55-.16a17.12,17.12,0,0,0,3.41-.65,3.43,3.43,0,0,1,.8-.14,2.75,2.75,0,0,1,2.25,1.37,8.92,8.92,0,0,1,1.61,5.37,4.14,4.14,0,0,1-.67,2.5,2.43,2.43,0,0,1-3.1.59,6.26,6.26,0,0,1-1.21-1.48,5.23,5.23,0,0,0-2.72-2.19,19.09,19.09,0,0,0-5.41-.55c-1.87,0-3,.34-3.42,1a3.3,3.3,0,0,0-.38,1.45c0,.6-.06,2.14-.06,4.61,0,1,.16,1.58.49,1.82a5.58,5.58,0,0,0,2.56.35,2.12,2.12,0,0,0,1.49-.43,2.37,2.37,0,0,0,.59-1.52,10.78,10.78,0,0,1,.35-1.94,2.05,2.05,0,0,1,.67-.92,1.81,1.81,0,0,1,1.2-.44,2.07,2.07,0,0,1,1.71,1,6.81,6.81,0,0,1,.87,2.5,19.73,19.73,0,0,1,.35,3.75,14.45,14.45,0,0,1-1.2,6.32,2.13,2.13,0,0,1-2,1.34,1.35,1.35,0,0,1-1.15-.43,4.15,4.15,0,0,1-.48-1.77,2.89,2.89,0,0,0-3.23-2.75,1.59,1.59,0,0,0-1.5.69,5.64,5.64,0,0,0-.4,2.58c0,.76,0,1.75.16,3a14,14,0,0,0,.33,2.41,1.52,1.52,0,0,0,1.21,1,14,14,0,0,0,3.38.28,12.52,12.52,0,0,0,5.51-.94,6.92,6.92,0,0,0,3-3.4,6.42,6.42,0,0,1,1.24-1.91,2.07,2.07,0,0,1,1.42-.49,2.05,2.05,0,0,1,1.7.89,3.61,3.61,0,0,1,.67,2.24,11.52,11.52,0,0,1-.76,3.66,17.91,17.91,0,0,1-1.85,3.91,5.16,5.16,0,0,1-.93,1.11,1.51,1.51,0,0,1-.93.28,8.67,8.67,0,0,1-1.34-.15,27.47,27.47,0,0,0-4.17-.36H55.49a3.06,3.06,0,0,1-1.93-.55,1.9,1.9,0,0,1-.68-1.55,1.51,1.51,0,0,1,.29-1,4.88,4.88,0,0,1,1.35-.8,2.73,2.73,0,0,0,1.08-.79,3.4,3.4,0,0,0,.55-1.36,48.33,48.33,0,0,0,.81-9.94q0-9.42-1.17-11.89a1.88,1.88,0,0,0-.54-.68,5.18,5.18,0,0,0-1.22-.47,1.76,1.76,0,0,1-1.39-1.85,2.21,2.21,0,0,1,.46-1.39,2.18,2.18,0,0,1,1.22-.81A19.52,19.52,0,0,1,58,124.12Z"/><path class="cls-1" d="M106.1,123.44A16,16,0,0,1,113,125a6.28,6.28,0,0,0,2.17.73,7.12,7.12,0,0,0,1.42-.22,3,3,0,0,1,.71-.07,2.82,2.82,0,0,1,2.22,1.17,10.67,10.67,0,0,1,2.34,7,4.84,4.84,0,0,1-2,4.32,4.32,4.32,0,0,1-2.46.74,3.5,3.5,0,0,1-2-.54,5.31,5.31,0,0,1-1.51-1.91,21.86,21.86,0,0,0-1.71-2.77A7.8,7.8,0,0,0,110.5,132a8.49,8.49,0,0,0-5-1.66,4.85,4.85,0,0,0-4,1.82,7.51,7.51,0,0,0-1.48,4.87,14.49,14.49,0,0,0,2.13,7.69,9.15,9.15,0,0,0,8.25,4.66,12.13,12.13,0,0,0,3.92-.66,7.84,7.84,0,0,0,3-1.71,2.62,2.62,0,0,1,1.52-.88,1.8,1.8,0,0,1,1.46.8,3,3,0,0,1,.61,1.91,7.36,7.36,0,0,1-.85,3.18,8.36,8.36,0,0,1-2.05,2.76,5.53,5.53,0,0,1-2.13.73,10.25,10.25,0,0,0-2.46.9A17.14,17.14,0,0,1,106,158.1a19.59,19.59,0,0,1-8.13-1.83A17.35,17.35,0,0,1,87.7,140.82a16.09,16.09,0,0,1,3.36-9.89A18.76,18.76,0,0,1,98.71,125,18.33,18.33,0,0,1,106.1,123.44Z"/></g></g></svg>