<svg xmlns="http://www.w3.org/2000/svg" viewBox="0 0 124.89 156.72"><defs><style>.cls-1,.cls-3{fill:#1a4222;}.cls-2{fill:#4ba134;}.cls-3{font-size:50px;font-family:CooperBlack, Cooper Black;}</style></defs><g id="Слой_2" data-name="Слой 2"><g id="Слой_1-2" data-name="Слой 1"><path class="cls-1" d="M77.48,17.51S85.12,36.18,52.4,48.73C34.61,55.55,21,73,37.26,100c1.35-12.06,7.15-38.66,32-44.72,0,0-23.17,8.66-25.22,47.89C56,104.84,83.92,106,92.21,81.73,103.16,49.71,77.48,17.51,77.48,17.51Z"/><path class="cls-2" d="M44.09,103A73.94,73.94,0,0,0,90.31,41.07,94.05,94.05,0,0,0,77.48,17.51S85.12,36.18,52.4,48.73C34.61,55.55,21,73,37.26,100c1.35-12.06,7.15-38.66,32-44.72C69.3,55.28,46.2,63.92,44.09,103Z"/><path class="cls-2" d="M77.42,17h0V11s2.25-5,5.93-6.09c.3-.09.32-.32.06-.49L76.75,0H51.28V6.94h0S68,6.52,77.42,17Z"/><polygon class="cls-2" points="49.49 0 49.49 6.95 45.92 6.95 45.92 5.85 45.02 5.85 45.02 0.49 45.97 0.49 45.97 0 49.49 0"/><path class="cls-2" d="M70,13.16l-14.67.11s-7,15.62-8.71,14c-1.49-1.42,4.66-1.83,4.66-19.38C51.28,7.27,66,8.85,70,13.16Z"/><text class="cls-3" transform="translate(0 144.17)">WEC</text></g></g></svg>