<svg xmlns="http://www.w3.org/2000/svg" viewBox="0 0 352 42"><defs><style>.cls-1{fill:#fff0de;}</style></defs><g id="Слой_2" data-name="Слой 2"><g id="Слой_1-2" data-name="Слой 1"><path class="cls-1" d="M9.05,15.13V28.6A4.46,4.46,0,0,1,4.53,33a4.45,4.45,0,0,1-1.76-.34,4.49,4.49,0,0,1-1.46-.93,4.24,4.24,0,0,1-1-1.4A4.14,4.14,0,0,1,0,28.6V4.41A4.34,4.34,0,0,1,.36,2.67a4.29,4.29,0,0,1,1-1.4A4.36,4.36,0,0,1,2.77.35,4.81,4.81,0,0,1,5.4.09,4.67,4.67,0,0,1,7.75,1.28l9.3,9.08,9.2-9.08A4.44,4.44,0,0,1,27.76.35L28,.23a3.53,3.53,0,0,0,.65-.11A3.24,3.24,0,0,1,29.47,0a4.66,4.66,0,0,1,3.22,1.27,4.29,4.29,0,0,1,1,1.44A4.12,4.12,0,0,1,34,4.41V28.6a4.27,4.27,0,0,1-1.31,3.13,4.7,4.7,0,0,1-5,.93,4.68,4.68,0,0,1-1.44-.93,4.22,4.22,0,0,1-1-1.4A4,4,0,0,1,25,28.6V15.18l-4.67,4.55a4.1,4.1,0,0,1-1.54,1,5.45,5.45,0,0,1-1.69.33,4.84,4.84,0,0,1-1.77-.34,4.54,4.54,0,0,1-1.53-1Z"/><path class="cls-1" d="M50.48,24.23a2,2,0,0,0,.57.54,3.87,3.87,0,0,0,.79.39,5.62,5.62,0,0,0,1.86.3,4.13,4.13,0,0,0,1.35-.2,7.6,7.6,0,0,1,2.32-.41,4.18,4.18,0,0,1,2,.45,4.63,4.63,0,0,1,1.35,1.1,4.18,4.18,0,0,1,.77,1.44,4.61,4.61,0,0,1,.25,1.42,3.11,3.11,0,0,1-.8,2.15,6.07,6.07,0,0,1-2.14,1.47,11.6,11.6,0,0,1-3,.85,20.31,20.31,0,0,1-3.3.27,11.86,11.86,0,0,1-4.78-1,12.79,12.79,0,0,1-4-2.67A13,13,0,0,1,41,26.4a11.66,11.66,0,0,1-1-4.86,11.89,11.89,0,0,1,1-4.91,12.47,12.47,0,0,1,2.81-4A13.23,13.23,0,0,1,53,9,12.81,12.81,0,0,1,58,10a13.47,13.47,0,0,1,4.1,2.62,12.72,12.72,0,0,1,2.82,3.94A11.89,11.89,0,0,1,66,21.35a3,3,0,0,1-.35,1.52,2.38,2.38,0,0,1-1,.9,4.15,4.15,0,0,1-1.46.42,14.24,14.24,0,0,1-1.85.1Zm5.93-4.89L56,18.68a2.27,2.27,0,0,0-.54-.66,2.79,2.79,0,0,0-.87-.46,4.4,4.4,0,0,0-1.35-.18,4.12,4.12,0,0,0-1.35.19,2.61,2.61,0,0,0-.84.49,2.67,2.67,0,0,0-.5.66c-.12.23-.23.44-.32.66Z"/><path class="cls-1" d="M78.21,23.37v4.89a5.4,5.4,0,0,1-.33,1.86,4.54,4.54,0,0,1-.9,1.49A4.32,4.32,0,0,1,73.75,33a4.94,4.94,0,0,1-1.86-.37,4.81,4.81,0,0,1-1.5-1,4.4,4.4,0,0,1-1-1.53A4.76,4.76,0,0,1,69,28.26V12.14a3.65,3.65,0,0,1,.38-1.41,3.56,3.56,0,0,1,.89-1.15l.44-.38a4.81,4.81,0,0,1,1.46-.9,4.7,4.7,0,0,1,2.65-.18A4.64,4.64,0,0,1,77.14,9.4l6.28,6.26,6.46-6.29a4.94,4.94,0,0,1,1.51-1A4,4,0,0,1,93.13,8a4.93,4.93,0,0,1,1.93.39,5.17,5.17,0,0,1,1.54,1,4.76,4.76,0,0,1,1,1.49A4.46,4.46,0,0,1,98,12.71V28.34a4.49,4.49,0,0,1-.38,1.84,4.65,4.65,0,0,1-1,1.47,4.5,4.5,0,0,1-1.51,1,4.84,4.84,0,0,1-1.85.36,4.31,4.31,0,0,1-1.74-.33,4.33,4.33,0,0,1-2.4-2.47,5.48,5.48,0,0,1-.32-1.84V23.13l-2.07,2.14a4.55,4.55,0,0,1-5.24,1,4.68,4.68,0,0,1-1.61-1.14Z"/><path class="cls-1" d="M125,9a3.82,3.82,0,0,1,1.67.35,4.47,4.47,0,0,1,1.35,1,4.7,4.7,0,0,1,1,1.45,4.59,4.59,0,0,1,.34,1.79V24.7a4.24,4.24,0,0,1,1.43.52,4.94,4.94,0,0,1,1.16.93A4.62,4.62,0,0,1,133,29v5.41a4.39,4.39,0,0,1-.36,1.75,4.6,4.6,0,0,1-2.37,2.42,4.25,4.25,0,0,1-1.75.36,4.2,4.2,0,0,1-1.78-.36,4.48,4.48,0,0,1-2.42-2.42,4.39,4.39,0,0,1-.36-1.75v-.6H113.08v.6a4.38,4.38,0,0,1-.35,1.78,4.55,4.55,0,0,1-1,1.44,4.85,4.85,0,0,1-1.43,1,4.47,4.47,0,0,1-1.76.36,4.4,4.4,0,0,1-1.76-.36,5,5,0,0,1-1.45-1,4.72,4.72,0,0,1-1-1.44,4.37,4.37,0,0,1-.37-1.78V29a4.54,4.54,0,0,1,.39-1.73,4.7,4.7,0,0,1,1-1.39,4.65,4.65,0,0,1,1.44-.92,4.78,4.78,0,0,1,1.79-.34,5.15,5.15,0,0,0,1-.08,1.59,1.59,0,0,0,.69-.27,1,1,0,0,0,.39-.55,3.44,3.44,0,0,0,.16-.95v-9a4.72,4.72,0,0,1,.64-2.47l.44-.57.25-.29a3.86,3.86,0,0,1,.8-.65,4.13,4.13,0,0,1,.94-.47l.36-.1a1.7,1.7,0,0,0,.45-.08,3.29,3.29,0,0,1,.53-.1Zm-6.1,13.81a5.15,5.15,0,0,1-.12.95c-.08.32-.17.64-.28.95H121V18.24h-2.2Z"/><path class="cls-1" d="M137,12.78a4.84,4.84,0,0,1,.75-2.62,4.78,4.78,0,0,1,2.05-1.78A4.35,4.35,0,0,1,141.61,8a4.3,4.3,0,0,1,1.8.37,4.35,4.35,0,0,1,1.42,1,4.47,4.47,0,0,1,.94,1.51,5.32,5.32,0,0,1,.33,1.86V17.1l6.49-7.26a6.13,6.13,0,0,1,1.67-1.32A4.16,4.16,0,0,1,156.33,8a4.69,4.69,0,0,1,1.81.37,4.63,4.63,0,0,1,1.49,1,4.88,4.88,0,0,1,1,1.51,4.76,4.76,0,0,1,.38,1.86V28.26a4.82,4.82,0,0,1-.74,2.61,4.69,4.69,0,0,1-2.06,1.76,4.52,4.52,0,0,1-1.82.37,4,4,0,0,1-1.74-.37,3.75,3.75,0,0,1-1.31-1,4.11,4.11,0,0,1-.8-1.5,6.42,6.42,0,0,1-.27-1.85V23.52l-6.9,7.67a5.52,5.52,0,0,1-.73.72,3.55,3.55,0,0,1-.8.52.71.71,0,0,1-.35.27,3.41,3.41,0,0,1-.62.19,4.81,4.81,0,0,1-.65.08h-.52a4.42,4.42,0,0,1-1.82-.37,5,5,0,0,1-1.49-1,4.61,4.61,0,0,1-1-1.5,4.75,4.75,0,0,1-.37-1.86Z"/><path class="cls-1" d="M183.28,17.85V28.52a4.33,4.33,0,0,1-.38,1.77,4.46,4.46,0,0,1-1,1.42,4.85,4.85,0,0,1-1.52.94,5,5,0,0,1-1.88.35,4.66,4.66,0,0,1-1.77-.32,4.27,4.27,0,0,1-1.48-.95,4.37,4.37,0,0,1-.95-1.42,4.46,4.46,0,0,1-.34-1.77V17.85h-4.2a5.41,5.41,0,0,1-1.87-.32,4.69,4.69,0,0,1-1.5-.9,4.1,4.1,0,0,1-1-1.35,3.89,3.89,0,0,1-.37-1.7,4.36,4.36,0,0,1,.37-1.82,4.51,4.51,0,0,1,1-1.45,4.84,4.84,0,0,1,1.5-1A5.16,5.16,0,0,1,169.73,9h17.44a5,5,0,0,1,1.87.36,4.78,4.78,0,0,1,2.58,2.44,4.38,4.38,0,0,1,.38,1.78,3.82,3.82,0,0,1-.38,1.72,4.25,4.25,0,0,1-1,1.35,4.87,4.87,0,0,1-1.54.87,5.93,5.93,0,0,1-1.87.33Z"/><path class="cls-1" d="M203,24.23a2,2,0,0,0,.54.54,3.9,3.9,0,0,0,.76.39,5.47,5.47,0,0,0,1.79.3,4.11,4.11,0,0,0,1.3-.21,7,7,0,0,1,2.22-.4,4,4,0,0,1,2,.44,4.43,4.43,0,0,1,1.33,1.11,4.28,4.28,0,0,1,.76,1.43,5,5,0,0,1,.24,1.43,3.18,3.18,0,0,1-.77,2.15,5.58,5.58,0,0,1-2,1.47,10.86,10.86,0,0,1-2.83.85,19,19,0,0,1-3.19.27,11.07,11.07,0,0,1-4.6-1,12.5,12.5,0,0,1-3.85-2.67A13,13,0,0,1,194,26.4a12.11,12.11,0,0,1-1-4.86,12.49,12.49,0,0,1,3.69-8.9,12.76,12.76,0,0,1,4-2.67,12.24,12.24,0,0,1,4.84-1,11.9,11.9,0,0,1,4.75,1,12.52,12.52,0,0,1,6.66,6.56A12.35,12.35,0,0,1,218,21.35a3.07,3.07,0,0,1-.33,1.52,2.37,2.37,0,0,1-.93.9,3.9,3.9,0,0,1-1.41.42,13.14,13.14,0,0,1-1.77.11Zm5.7-4.9-.39-.65a2.12,2.12,0,0,0-.52-.66,2.88,2.88,0,0,0-.84-.47,4.38,4.38,0,0,0-1.3-.17,3.74,3.74,0,0,0-1.29.19,2.3,2.3,0,0,0-.82.49,2.66,2.66,0,0,0-.48.66,6.11,6.11,0,0,0-.3.65Z"/><path class="cls-1" d="M222,20.91a11.61,11.61,0,0,1,1.1-4.63,12.68,12.68,0,0,1,6.68-6.35,12.51,12.51,0,0,1,4.8-.93,12.73,12.73,0,0,1,4.79,1A12.49,12.49,0,0,1,246,16.56a11.89,11.89,0,0,1,0,9.5,12.44,12.44,0,0,1-6.64,6.53,12.21,12.21,0,0,1-4.85,1,12.87,12.87,0,0,1-1.75-.12q-.84-.13-1.68-.33v4.23a5,5,0,0,1-.32,1.83,4.39,4.39,0,0,1-.9,1.47,3.88,3.88,0,0,1-1.41,1,4.59,4.59,0,0,1-3.61,0,4.53,4.53,0,0,1-1.48-1,4.79,4.79,0,0,1-1-1.47,4.44,4.44,0,0,1-.37-1.83Zm9.12.41a2.92,2.92,0,0,0,.28,1.29,3.21,3.21,0,0,0,.76,1,3.41,3.41,0,0,0,2.36.95,3.26,3.26,0,0,0,3.38-3.27,3.34,3.34,0,0,0-.26-1.29,3.38,3.38,0,0,0-3.12-2,3.41,3.41,0,0,0-2.36.95,3.21,3.21,0,0,0-.76,1A2.86,2.86,0,0,0,231.12,21.32Z"/><path class="cls-1" d="M261.46,17.65a2.57,2.57,0,0,0-1.16.44A4,4,0,0,0,258.81,20a2.73,2.73,0,0,0-.2,1,2.76,2.76,0,0,0,.2,1,4.27,4.27,0,0,0,.59,1.09,4.22,4.22,0,0,0,.9.89,2.33,2.33,0,0,0,1.16.42l.4,0h.41a2.74,2.74,0,0,0,.81-.12,3.51,3.51,0,0,0,1-.52l.94-.68c.32-.22.66-.42,1-.61a6.2,6.2,0,0,1,1.1-.45,3.83,3.83,0,0,1,1.16-.17,4.21,4.21,0,0,1,1.44.3,5.44,5.44,0,0,1,1.54.91,5.37,5.37,0,0,1,1.22,1.46,3.89,3.89,0,0,1,.5,2,4.94,4.94,0,0,1-.46,2.1,6.88,6.88,0,0,1-1.25,1.81A8.74,8.74,0,0,1,269.44,32a13.34,13.34,0,0,1-2.24,1.11,13.84,13.84,0,0,1-2.42.68,12.36,12.36,0,0,1-2.43.24,13.68,13.68,0,0,1-5.17-1A13.31,13.31,0,0,1,253,30.34a12.83,12.83,0,0,1-2.87-4A12.28,12.28,0,0,1,249,21.24,12.94,12.94,0,0,1,250.05,16a13.25,13.25,0,0,1,12.3-8,13.79,13.79,0,0,1,3.67.53,12.39,12.39,0,0,1,3.43,1.52A9.07,9.07,0,0,1,272,12.4a5.1,5.1,0,0,1,1,3.07,4,4,0,0,1-.49,2,5.26,5.26,0,0,1-1.19,1.46,5.37,5.37,0,0,1-1.52.92,4.24,4.24,0,0,1-1.45.32,3.81,3.81,0,0,1-1.2-.19,6,6,0,0,1-1.11-.48,8.38,8.38,0,0,1-1-.68l-.94-.68a3.87,3.87,0,0,0-1-.48,3.58,3.58,0,0,0-.8-.1h-.41Z"/><path class="cls-1" d="M293.22,18.89l5.54,6.36a4.64,4.64,0,0,1,.93,1.47,4.49,4.49,0,0,1,.31,1.66,4.43,4.43,0,0,1-.36,1.76,4.76,4.76,0,0,1-1,1.47,4.65,4.65,0,0,1-1.47,1,4.31,4.31,0,0,1-1.8.38,4.48,4.48,0,0,1-1.77-.36,4.25,4.25,0,0,1-1.56-1.08L286.35,25l-.18.16v3.23a4.49,4.49,0,0,1-4.53,4.54,4.8,4.8,0,0,1-1.83-.35,4.6,4.6,0,0,1-2.45-2.42,4.31,4.31,0,0,1-.36-1.77V12.75a4.37,4.37,0,0,1,.37-1.78,4.75,4.75,0,0,1,2.48-2.43,4.62,4.62,0,0,1,1.79-.36,4.53,4.53,0,0,1,1.78.36,4.41,4.41,0,0,1,1.47,1,4.5,4.5,0,0,1,.95,1.45,4.35,4.35,0,0,1,.35,1.78v.13l4.52-3.67a4.93,4.93,0,0,1,1.47-.9A4.47,4.47,0,0,1,293.83,8a4.59,4.59,0,0,1,3.22,1.34,4.51,4.51,0,0,1,1,1.45,4.22,4.22,0,0,1,.38,1.78,4.48,4.48,0,0,1-.36,1.77A4.09,4.09,0,0,1,297,15.88Z"/><path class="cls-1" d="M302,21.54a11.62,11.62,0,0,1,1-4.85,13,13,0,0,1,2.82-4,13.18,13.18,0,0,1,18.31,0,12.75,12.75,0,0,1,2.8,4,11.61,11.61,0,0,1,1,4.85V29.1a4.47,4.47,0,0,1-.38,1.8,4.55,4.55,0,0,1-1,1.47,5.53,5.53,0,0,1-1.55,1,4.89,4.89,0,0,1-1.89.36,4.48,4.48,0,0,1-3-1.07,11.94,11.94,0,0,1-2.46,1A10.38,10.38,0,0,1,315,34a13.2,13.2,0,0,1-12-7.63A11.49,11.49,0,0,1,302,21.54Zm9.5,0a2.85,2.85,0,0,0,.29,1.31,3.54,3.54,0,0,0,1.89,1.76,3.58,3.58,0,0,0,1.33.26,3.75,3.75,0,0,0,1.37-.26,3.79,3.79,0,0,0,1.13-.71,3.17,3.17,0,0,0,.77-1,3.2,3.2,0,0,0,0-2.62,3.07,3.07,0,0,0-.77-1.05,3.79,3.79,0,0,0-1.13-.71,3.63,3.63,0,0,0-2.7,0,3.5,3.5,0,0,0-1.89,1.76A2.85,2.85,0,0,0,311.5,21.54Z"/><path class="cls-1" d="M339.84,32.58a4.45,4.45,0,0,1-1.55,1.07,4.66,4.66,0,0,1-1.77.35,4.2,4.2,0,0,1-1.74-.38,4.86,4.86,0,0,1-2.47-2.52,4.48,4.48,0,0,1-.37-1.84,4.79,4.79,0,0,1,1.37-3.39l.46-.4a10.5,10.5,0,0,1-2-3.12,9.71,9.71,0,0,1-.74-3.8,10.7,10.7,0,0,1,.79-4.11,10.92,10.92,0,0,1,2.15-3.35,10.11,10.11,0,0,1,3.21-2.26A9.39,9.39,0,0,1,341.09,8h6.16a4.41,4.41,0,0,1,1.86.4,4.76,4.76,0,0,1,1.5,1.06A4.85,4.85,0,0,1,352,12.91v16a4.9,4.9,0,0,1-1.39,3.46,4.7,4.7,0,0,1-1.5,1,4.56,4.56,0,0,1-1.86.39,4.18,4.18,0,0,1-1.63-.31,4.08,4.08,0,0,1-1.33-.85,5,5,0,0,1-1-1.3,5.41,5.41,0,0,1-.5-1.63Zm1.48-15.27a1.64,1.64,0,0,0-.32.05,1,1,0,0,0-.38.14.92.92,0,0,0-.3.29.73.73,0,0,0-.11.43.74.74,0,0,0,.12.46,1.07,1.07,0,0,0,.3.3,1.29,1.29,0,0,0,.35.18,1.12,1.12,0,0,0,.31.05h1.52v-1.9Z"/></g></g></svg>