<svg width="406" height="334" viewBox="0 0 406 334" fill="none" xmlns="http://www.w3.org/2000/svg">
<path fill-rule="evenodd" clip-rule="evenodd" d="M0.333025 11.0092C0.337675 12.3111 1.27444 13.3917 2.50903 13.6213L2.99967 151V266H294.999H295L405.5 207.5L295 151H294.999H3.47831L3.99967 150.998L3.50903 13.6177C4.74195 13.3793 5.67097 12.292 5.66632 10.9902C5.66106 9.5174 4.4629 8.32777 2.99015 8.33303C1.5174 8.33829 0.327765 9.53645 0.333025 11.0092Z" fill="#FF4040"/>
<path d="M65.6899 234V226.65L84.5899 208.8C86.0832 207.447 87.1799 206.233 87.8799 205.16C88.5799 204.087 89.0466 203.107 89.2799 202.22C89.5599 201.333 89.6999 200.517 89.6999 199.77C89.6999 197.81 89.0232 196.317 87.6699 195.29C86.3632 194.217 84.4265 193.68 81.8599 193.68C79.8066 193.68 77.8932 194.077 76.1199 194.87C74.3932 195.663 72.9232 196.9 71.7099 198.58L63.4499 193.26C65.3165 190.46 67.9299 188.243 71.2899 186.61C74.6499 184.977 78.5232 184.16 82.9099 184.16C86.5499 184.16 89.7232 184.767 92.4299 185.98C95.1832 187.147 97.3066 188.803 98.7999 190.95C100.34 193.097 101.11 195.663 101.11 198.65C101.11 200.237 100.9 201.823 100.48 203.41C100.107 204.95 99.3132 206.583 98.0999 208.31C96.9332 210.037 95.2066 211.973 92.9199 214.12L77.2399 228.89L75.0699 224.76H102.72V234H65.6899ZM128.399 234.84C124.386 234.84 120.792 233.86 117.619 231.9C114.446 229.893 111.949 227 110.129 223.22C108.309 219.44 107.399 214.867 107.399 209.5C107.399 204.133 108.309 199.56 110.129 195.78C111.949 192 114.446 189.13 117.619 187.17C120.792 185.163 124.386 184.16 128.399 184.16C132.459 184.16 136.052 185.163 139.179 187.17C142.352 189.13 144.849 192 146.669 195.78C148.489 199.56 149.399 204.133 149.399 209.5C149.399 214.867 148.489 219.44 146.669 223.22C144.849 227 142.352 229.893 139.179 231.9C136.052 233.86 132.459 234.84 128.399 234.84ZM128.399 225.25C130.312 225.25 131.969 224.713 133.369 223.64C134.816 222.567 135.936 220.863 136.729 218.53C137.569 216.197 137.989 213.187 137.989 209.5C137.989 205.813 137.569 202.803 136.729 200.47C135.936 198.137 134.816 196.433 133.369 195.36C131.969 194.287 130.312 193.75 128.399 193.75C126.532 193.75 124.876 194.287 123.429 195.36C122.029 196.433 120.909 198.137 120.069 200.47C119.276 202.803 118.879 205.813 118.879 209.5C118.879 213.187 119.276 216.197 120.069 218.53C120.909 220.863 122.029 222.567 123.429 223.64C124.876 224.713 126.532 225.25 128.399 225.25ZM154.215 234V226.65L173.115 208.8C174.609 207.447 175.705 206.233 176.405 205.16C177.105 204.087 177.572 203.107 177.805 202.22C178.085 201.333 178.225 200.517 178.225 199.77C178.225 197.81 177.549 196.317 176.195 195.29C174.889 194.217 172.952 193.68 170.385 193.68C168.332 193.68 166.419 194.077 164.645 194.87C162.919 195.663 161.449 196.9 160.235 198.58L151.975 193.26C153.842 190.46 156.455 188.243 159.815 186.61C163.175 184.977 167.049 184.16 171.435 184.16C175.075 184.16 178.249 184.767 180.955 185.98C183.709 187.147 185.832 188.803 187.325 190.95C188.865 193.097 189.635 195.663 189.635 198.65C189.635 200.237 189.425 201.823 189.005 203.41C188.632 204.95 187.839 206.583 186.625 208.31C185.459 210.037 183.732 211.973 181.445 214.12L165.765 228.89L163.595 224.76H191.245V234H154.215ZM211.814 234.84C208.408 234.84 205.024 234.397 201.664 233.51C198.304 232.577 195.458 231.27 193.124 229.59L197.534 220.91C199.401 222.263 201.571 223.337 204.044 224.13C206.518 224.923 209.014 225.32 211.534 225.32C214.381 225.32 216.621 224.76 218.254 223.64C219.888 222.52 220.704 220.98 220.704 219.02C220.704 217.153 219.981 215.683 218.534 214.61C217.088 213.537 214.754 213 211.534 213H206.354V205.51L220.004 190.04L221.264 194.1H195.574V185H229.874V192.35L216.294 207.82L210.554 204.53H213.844C219.864 204.53 224.414 205.883 227.494 208.59C230.574 211.297 232.114 214.773 232.114 219.02C232.114 221.773 231.391 224.363 229.944 226.79C228.498 229.17 226.281 231.107 223.294 232.6C220.308 234.093 216.481 234.84 211.814 234.84Z" fill="white"/>
<path d="M4.64316 321V286H11.3432L26.2432 310.7H22.6932L37.3432 286H43.9932L44.0932 321H36.4932L36.4432 297.65H37.8432L26.1432 317.3H22.4932L10.5432 297.65H12.2432V321H4.64316ZM68.3471 321V315.75L67.8471 314.6V305.2C67.8471 303.533 67.3304 302.233 66.2971 301.3C65.2971 300.367 63.7471 299.9 61.6471 299.9C60.2137 299.9 58.7971 300.133 57.3971 300.6C56.0304 301.033 54.8637 301.633 53.8971 302.4L51.0971 296.95C52.5637 295.917 54.3304 295.117 56.3971 294.55C58.4637 293.983 60.5637 293.7 62.6971 293.7C66.7971 293.7 69.9804 294.667 72.2471 296.6C74.5137 298.533 75.6471 301.55 75.6471 305.65V321H68.3471ZM60.1471 321.4C58.0471 321.4 56.2471 321.05 54.7471 320.35C53.2471 319.617 52.0971 318.633 51.2971 317.4C50.4971 316.167 50.0971 314.783 50.0971 313.25C50.0971 311.65 50.4804 310.25 51.2471 309.05C52.0471 307.85 53.2971 306.917 54.9971 306.25C56.6971 305.55 58.9137 305.2 61.6471 305.2H68.7971V309.75H62.4971C60.6637 309.75 59.3971 310.05 58.6971 310.65C58.0304 311.25 57.6971 312 57.6971 312.9C57.6971 313.9 58.0804 314.7 58.8471 315.3C59.6471 315.867 60.7304 316.15 62.0971 316.15C63.3971 316.15 64.5637 315.85 65.5971 315.25C66.6304 314.617 67.3804 313.7 67.8471 312.5L69.0471 316.1C68.4804 317.833 67.4471 319.15 65.9471 320.05C64.4471 320.95 62.5137 321.4 60.1471 321.4ZM82.7064 321V294.1H90.1564V301.7L89.1064 299.5C89.9064 297.6 91.1898 296.167 92.9564 295.2C94.7231 294.2 96.8731 293.7 99.4064 293.7V300.9C99.0731 300.867 98.7731 300.85 98.5064 300.85C98.2398 300.817 97.9564 300.8 97.6564 300.8C95.5231 300.8 93.7898 301.417 92.4564 302.65C91.1564 303.85 90.5064 305.733 90.5064 308.3V321H82.7064ZM116.849 321.4C113.949 321.4 111.366 320.817 109.099 319.65C106.832 318.45 105.049 316.8 103.749 314.7C102.482 312.6 101.849 310.217 101.849 307.55C101.849 304.85 102.482 302.467 103.749 300.4C105.049 298.3 106.832 296.667 109.099 295.5C111.366 294.3 113.949 293.7 116.849 293.7C119.682 293.7 122.149 294.3 124.249 295.5C126.349 296.667 127.899 298.35 128.899 300.55L122.849 303.8C122.149 302.533 121.266 301.6 120.199 301C119.166 300.4 118.032 300.1 116.799 300.1C115.466 300.1 114.266 300.4 113.199 301C112.132 301.6 111.282 302.45 110.649 303.55C110.049 304.65 109.749 305.983 109.749 307.55C109.749 309.117 110.049 310.45 110.649 311.55C111.282 312.65 112.132 313.5 113.199 314.1C114.266 314.7 115.466 315 116.799 315C118.032 315 119.166 314.717 120.199 314.15C121.266 313.55 122.149 312.6 122.849 311.3L128.899 314.6C127.899 316.767 126.349 318.45 124.249 319.65C122.149 320.817 119.682 321.4 116.849 321.4ZM149.594 293.7C151.727 293.7 153.627 294.133 155.294 295C156.994 295.833 158.327 297.133 159.294 298.9C160.26 300.633 160.744 302.867 160.744 305.6V321H152.944V306.8C152.944 304.633 152.46 303.033 151.494 302C150.56 300.967 149.227 300.45 147.494 300.45C146.26 300.45 145.144 300.717 144.144 301.25C143.177 301.75 142.41 302.533 141.844 303.6C141.31 304.667 141.044 306.033 141.044 307.7V321H133.244V283.9H141.044V301.55L139.294 299.3C140.26 297.5 141.644 296.117 143.444 295.15C145.244 294.183 147.294 293.7 149.594 293.7ZM180.974 310.05V303.8H195.124V310.05H180.974ZM222.421 321.6C220.055 321.6 217.871 321.167 215.871 320.3C213.905 319.4 212.288 318.133 211.021 316.5L215.521 311.1C216.488 312.367 217.505 313.333 218.571 314C219.638 314.633 220.788 314.95 222.021 314.95C225.321 314.95 226.971 313.017 226.971 309.15V292.5H214.671V286H235.021V308.7C235.021 313.033 233.955 316.267 231.821 318.4C229.688 320.533 226.555 321.6 222.421 321.6ZM253.822 321.4C251.589 321.4 249.589 320.967 247.822 320.1C246.089 319.233 244.739 317.917 243.772 316.15C242.805 314.35 242.322 312.067 242.322 309.3V294.1H250.122V308.15C250.122 310.383 250.589 312.033 251.522 313.1C252.489 314.133 253.839 314.65 255.572 314.65C256.772 314.65 257.839 314.4 258.772 313.9C259.705 313.367 260.439 312.567 260.972 311.5C261.505 310.4 261.772 309.033 261.772 307.4V294.1H269.572V321H262.172V313.6L263.522 315.75C262.622 317.617 261.289 319.033 259.522 320C257.789 320.933 255.889 321.4 253.822 321.4ZM293.148 293.7C295.282 293.7 297.182 294.133 298.848 295C300.548 295.833 301.882 297.133 302.848 298.9C303.815 300.633 304.298 302.867 304.298 305.6V321H296.498V306.8C296.498 304.633 296.015 303.033 295.048 302C294.115 300.967 292.782 300.45 291.048 300.45C289.815 300.45 288.698 300.717 287.698 301.25C286.732 301.75 285.965 302.533 285.398 303.6C284.865 304.667 284.598 306.033 284.598 307.7V321H276.798V294.1H284.248V301.55L282.848 299.3C283.815 297.5 285.198 296.117 286.998 295.15C288.798 294.183 290.848 293.7 293.148 293.7ZM324.914 321.4C321.847 321.4 319.147 320.8 316.814 319.6C314.514 318.4 312.731 316.767 311.464 314.7C310.197 312.6 309.564 310.217 309.564 307.55C309.564 304.85 310.181 302.467 311.414 300.4C312.681 298.3 314.397 296.667 316.564 295.5C318.731 294.3 321.181 293.7 323.914 293.7C326.547 293.7 328.914 294.267 331.014 295.4C333.147 296.5 334.831 298.1 336.064 300.2C337.297 302.267 337.914 304.75 337.914 307.65C337.914 307.95 337.897 308.3 337.864 308.7C337.831 309.067 337.797 309.417 337.764 309.75H315.914V305.2H333.664L330.664 306.55C330.664 305.15 330.381 303.933 329.814 302.9C329.247 301.867 328.464 301.067 327.464 300.5C326.464 299.9 325.297 299.6 323.964 299.6C322.631 299.6 321.447 299.9 320.414 300.5C319.414 301.067 318.631 301.883 318.064 302.95C317.497 303.983 317.214 305.217 317.214 306.65V307.85C317.214 309.317 317.531 310.617 318.164 311.75C318.831 312.85 319.747 313.7 320.914 314.3C322.114 314.867 323.514 315.15 325.114 315.15C326.547 315.15 327.797 314.933 328.864 314.5C329.964 314.067 330.964 313.417 331.864 312.55L336.014 317.05C334.781 318.45 333.231 319.533 331.364 320.3C329.497 321.033 327.347 321.4 324.914 321.4Z" fill="white"/>
<path d="M20.2339 58V16H28.2739L53.0539 46.24H49.1539V16H58.7539V58H50.7739L25.9339 27.76H29.8339V58H20.2339ZM68.6909 58V16H78.4109V58H68.6909ZM97.0784 58V23.92H83.6384V16H120.238V23.92H106.798V58H97.0784ZM134.408 32.92H154.628V40.48H134.408V32.92ZM135.128 50.2H157.988V58H125.468V16H157.208V23.8H135.128V50.2ZM185.822 58.72C182.582 58.72 179.562 58.2 176.762 57.16C174.002 56.08 171.602 54.56 169.562 52.6C167.522 50.64 165.922 48.34 164.762 45.7C163.642 43.06 163.082 40.16 163.082 37C163.082 33.84 163.642 30.94 164.762 28.3C165.922 25.66 167.522 23.36 169.562 21.4C171.642 19.44 174.062 17.94 176.822 16.9C179.582 15.82 182.602 15.28 185.882 15.28C189.522 15.28 192.802 15.92 195.722 17.2C198.682 18.44 201.162 20.28 203.162 22.72L196.922 28.48C195.482 26.84 193.882 25.62 192.122 24.82C190.362 23.98 188.442 23.56 186.362 23.56C184.402 23.56 182.602 23.88 180.962 24.52C179.322 25.16 177.902 26.08 176.702 27.28C175.502 28.48 174.562 29.9 173.882 31.54C173.242 33.18 172.922 35 172.922 37C172.922 39 173.242 40.82 173.882 42.46C174.562 44.1 175.502 45.52 176.702 46.72C177.902 47.92 179.322 48.84 180.962 49.48C182.602 50.12 184.402 50.44 186.362 50.44C188.442 50.44 190.362 50.04 192.122 49.24C193.882 48.4 195.482 47.14 196.922 45.46L203.162 51.22C201.162 53.66 198.682 55.52 195.722 56.8C192.802 58.08 189.502 58.72 185.822 58.72Z" fill="white"/>
<path d="M33.78 78H35.97V99H33.78V78ZM20.64 99H18.42V78H20.64V99ZM33.99 89.31H20.4V87.36H33.99V89.31ZM49.0643 99.15C47.4243 99.15 45.9843 98.81 44.7443 98.13C43.5043 97.43 42.5343 96.48 41.8343 95.28C41.1343 94.06 40.7843 92.67 40.7843 91.11C40.7843 89.55 41.1143 88.17 41.7743 86.97C42.4543 85.77 43.3743 84.83 44.5343 84.15C45.7143 83.45 47.0343 83.1 48.4943 83.1C49.9743 83.1 51.2843 83.44 52.4243 84.12C53.5843 84.78 54.4943 85.72 55.1543 86.94C55.8143 88.14 56.1443 89.53 56.1443 91.11C56.1443 91.21 56.1343 91.32 56.1143 91.44C56.1143 91.54 56.1143 91.65 56.1143 91.77H42.4043V90.18H54.9743L54.1343 90.81C54.1343 89.67 53.8843 88.66 53.3843 87.78C52.9043 86.88 52.2443 86.18 51.4043 85.68C50.5643 85.18 49.5943 84.93 48.4943 84.93C47.4143 84.93 46.4443 85.18 45.5843 85.68C44.7243 86.18 44.0543 86.88 43.5743 87.78C43.0943 88.68 42.8543 89.71 42.8543 90.87V91.2C42.8543 92.4 43.1143 93.46 43.6343 94.38C44.1743 95.28 44.9143 95.99 45.8543 96.51C46.8143 97.01 47.9043 97.26 49.1243 97.26C50.0843 97.26 50.9743 97.09 51.7943 96.75C52.6343 96.41 53.3543 95.89 53.9543 95.19L55.1543 96.57C54.4543 97.41 53.5743 98.05 52.5143 98.49C51.4743 98.93 50.3243 99.15 49.0643 99.15ZM60.4798 99V76.74H62.6098V99H60.4798ZM76.6664 99.15C75.3064 99.15 74.0764 98.84 72.9764 98.22C71.8764 97.58 70.9964 96.67 70.3364 95.49C69.6964 94.29 69.3764 92.83 69.3764 91.11C69.3764 89.39 69.6964 87.94 70.3364 86.76C70.9764 85.56 71.8464 84.65 72.9464 84.03C74.0464 83.41 75.2864 83.1 76.6664 83.1C78.1664 83.1 79.5064 83.44 80.6864 84.12C81.8864 84.78 82.8264 85.72 83.5064 86.94C84.1864 88.14 84.5264 89.53 84.5264 91.11C84.5264 92.71 84.1864 94.11 83.5064 95.31C82.8264 96.51 81.8864 97.45 80.6864 98.13C79.5064 98.81 78.1664 99.15 76.6664 99.15ZM68.5364 104.82V83.25H70.5764V87.99L70.3664 91.14L70.6664 94.32V104.82H68.5364ZM76.5164 97.26C77.6364 97.26 78.6364 97.01 79.5164 96.51C80.3964 95.99 81.0964 95.27 81.6164 94.35C82.1364 93.41 82.3964 92.33 82.3964 91.11C82.3964 89.89 82.1364 88.82 81.6164 87.9C81.0964 86.98 80.3964 86.26 79.5164 85.74C78.6364 85.22 77.6364 84.96 76.5164 84.96C75.3964 84.96 74.3864 85.22 73.4864 85.74C72.6064 86.26 71.9064 86.98 71.3864 87.9C70.8864 88.82 70.6364 89.89 70.6364 91.11C70.6364 92.33 70.8864 93.41 71.3864 94.35C71.9064 95.27 72.6064 95.99 73.4864 96.51C74.3864 97.01 75.3964 97.26 76.5164 97.26ZM95.5584 99.15C93.9184 99.15 92.4784 98.81 91.2384 98.13C89.9984 97.43 89.0284 96.48 88.3284 95.28C87.6284 94.06 87.2784 92.67 87.2784 91.11C87.2784 89.55 87.6084 88.17 88.2684 86.97C88.9484 85.77 89.8684 84.83 91.0284 84.15C92.2084 83.45 93.5284 83.1 94.9884 83.1C96.4684 83.1 97.7784 83.44 98.9184 84.12C100.078 84.78 100.988 85.72 101.648 86.94C102.308 88.14 102.638 89.53 102.638 91.11C102.638 91.21 102.628 91.32 102.608 91.44C102.608 91.54 102.608 91.65 102.608 91.77H88.8984V90.18H101.468L100.628 90.81C100.628 89.67 100.378 88.66 99.8784 87.78C99.3984 86.88 98.7384 86.18 97.8984 85.68C97.0584 85.18 96.0884 84.93 94.9884 84.93C93.9084 84.93 92.9384 85.18 92.0784 85.68C91.2184 86.18 90.5484 86.88 90.0684 87.78C89.5884 88.68 89.3484 89.71 89.3484 90.87V91.2C89.3484 92.4 89.6084 93.46 90.1284 94.38C90.6684 95.28 91.4084 95.99 92.3484 96.51C93.3084 97.01 94.3984 97.26 95.6184 97.26C96.5784 97.26 97.4684 97.09 98.2884 96.75C99.1284 96.41 99.8484 95.89 100.448 95.19L101.648 96.57C100.948 97.41 100.068 98.05 99.0084 98.49C97.9684 98.93 96.8184 99.15 95.5584 99.15ZM106.974 99V83.25H109.014V87.54L108.804 86.79C109.244 85.59 109.984 84.68 111.024 84.06C112.064 83.42 113.354 83.1 114.894 83.1V85.17C114.814 85.17 114.734 85.17 114.654 85.17C114.574 85.15 114.494 85.14 114.414 85.14C112.754 85.14 111.454 85.65 110.514 86.67C109.574 87.67 109.104 89.1 109.104 90.96V99H106.974ZM133.286 99.15C131.766 99.15 130.396 98.81 129.176 98.13C127.976 97.43 127.026 96.48 126.326 95.28C125.626 94.06 125.276 92.67 125.276 91.11C125.276 89.53 125.626 88.14 126.326 86.94C127.026 85.74 127.976 84.8 129.176 84.12C130.376 83.44 131.746 83.1 133.286 83.1C134.846 83.1 136.226 83.44 137.426 84.12C138.646 84.8 139.596 85.74 140.276 86.94C140.976 88.14 141.326 89.53 141.326 91.11C141.326 92.67 140.976 94.06 140.276 95.28C139.596 96.48 138.646 97.43 137.426 98.13C136.206 98.81 134.826 99.15 133.286 99.15ZM133.286 97.26C134.426 97.26 135.436 97.01 136.316 96.51C137.196 95.99 137.886 95.27 138.386 94.35C138.906 93.41 139.166 92.33 139.166 91.11C139.166 89.87 138.906 88.79 138.386 87.87C137.886 86.95 137.196 86.24 136.316 85.74C135.436 85.22 134.436 84.96 133.316 84.96C132.196 84.96 131.196 85.22 130.316 85.74C129.436 86.24 128.736 86.95 128.216 87.87C127.696 88.79 127.436 89.87 127.436 91.11C127.436 92.33 127.696 93.41 128.216 94.35C128.736 95.27 129.436 95.99 130.316 96.51C131.196 97.01 132.186 97.26 133.286 97.26ZM146.035 99V81.27C146.035 79.87 146.445 78.74 147.265 77.88C148.085 77.02 149.265 76.59 150.805 76.59C151.405 76.59 151.985 76.67 152.545 76.83C153.105 76.99 153.575 77.24 153.955 77.58L153.235 79.17C152.935 78.91 152.585 78.72 152.185 78.6C151.785 78.46 151.355 78.39 150.895 78.39C149.995 78.39 149.305 78.64 148.825 79.14C148.345 79.64 148.105 80.38 148.105 81.36V83.76L148.165 84.75V99H146.035ZM143.215 85.02V83.25H152.965V85.02H143.215ZM169.963 99.15C168.463 99.15 167.113 98.81 165.913 98.13C164.733 97.45 163.803 96.51 163.123 95.31C162.443 94.09 162.103 92.69 162.103 91.11C162.103 89.51 162.443 88.11 163.123 86.91C163.803 85.71 164.733 84.78 165.913 84.12C167.113 83.44 168.463 83.1 169.963 83.1C171.343 83.1 172.573 83.41 173.653 84.03C174.753 84.65 175.623 85.56 176.263 86.76C176.923 87.94 177.253 89.39 177.253 91.11C177.253 92.81 176.933 94.26 176.293 95.46C175.653 96.66 174.783 97.58 173.683 98.22C172.603 98.84 171.363 99.15 169.963 99.15ZM170.113 97.26C171.233 97.26 172.233 97.01 173.113 96.51C174.013 95.99 174.713 95.27 175.213 94.35C175.733 93.41 175.993 92.33 175.993 91.11C175.993 89.87 175.733 88.79 175.213 87.87C174.713 86.95 174.013 86.24 173.113 85.74C172.233 85.22 171.233 84.96 170.113 84.96C169.013 84.96 168.023 85.22 167.143 85.74C166.263 86.24 165.563 86.95 165.043 87.87C164.523 88.79 164.263 89.87 164.263 91.11C164.263 92.33 164.523 93.41 165.043 94.35C165.563 95.27 166.263 95.99 167.143 96.51C168.023 97.01 169.013 97.26 170.113 97.26ZM176.053 99V94.26L176.263 91.08L175.963 87.9V76.74H178.093V99H176.053ZM190.715 99.15C189.075 99.15 187.635 98.81 186.395 98.13C185.155 97.43 184.185 96.48 183.485 95.28C182.785 94.06 182.435 92.67 182.435 91.11C182.435 89.55 182.765 88.17 183.425 86.97C184.105 85.77 185.025 84.83 186.185 84.15C187.365 83.45 188.685 83.1 190.145 83.1C191.625 83.1 192.935 83.44 194.075 84.12C195.235 84.78 196.145 85.72 196.805 86.94C197.465 88.14 197.795 89.53 197.795 91.11C197.795 91.21 197.785 91.32 197.765 91.44C197.765 91.54 197.765 91.65 197.765 91.77H184.055V90.18H196.625L195.785 90.81C195.785 89.67 195.535 88.66 195.035 87.78C194.555 86.88 193.895 86.18 193.055 85.68C192.215 85.18 191.245 84.93 190.145 84.93C189.065 84.93 188.095 85.18 187.235 85.68C186.375 86.18 185.705 86.88 185.225 87.78C184.745 88.68 184.505 89.71 184.505 90.87V91.2C184.505 92.4 184.765 93.46 185.285 94.38C185.825 95.28 186.565 95.99 187.505 96.51C188.465 97.01 189.555 97.26 190.775 97.26C191.735 97.26 192.625 97.09 193.445 96.75C194.285 96.41 195.005 95.89 195.605 95.19L196.805 96.57C196.105 97.41 195.225 98.05 194.165 98.49C193.125 98.93 191.975 99.15 190.715 99.15ZM205.887 99L198.897 83.25H201.117L207.537 97.86H206.487L212.997 83.25H215.097L208.077 99H205.887ZM224.348 99.15C222.708 99.15 221.268 98.81 220.028 98.13C218.788 97.43 217.818 96.48 217.118 95.28C216.418 94.06 216.068 92.67 216.068 91.11C216.068 89.55 216.398 88.17 217.058 86.97C217.738 85.77 218.658 84.83 219.818 84.15C220.998 83.45 222.318 83.1 223.778 83.1C225.258 83.1 226.568 83.44 227.708 84.12C228.868 84.78 229.778 85.72 230.438 86.94C231.098 88.14 231.428 89.53 231.428 91.11C231.428 91.21 231.418 91.32 231.398 91.44C231.398 91.54 231.398 91.65 231.398 91.77H217.688V90.18H230.258L229.418 90.81C229.418 89.67 229.168 88.66 228.668 87.78C228.188 86.88 227.528 86.18 226.688 85.68C225.848 85.18 224.878 84.93 223.778 84.93C222.698 84.93 221.728 85.18 220.868 85.68C220.008 86.18 219.338 86.88 218.858 87.78C218.378 88.68 218.138 89.71 218.138 90.87V91.2C218.138 92.4 218.398 93.46 218.918 94.38C219.458 95.28 220.198 95.99 221.138 96.51C222.098 97.01 223.188 97.26 224.408 97.26C225.368 97.26 226.258 97.09 227.078 96.75C227.918 96.41 228.638 95.89 229.238 95.19L230.438 96.57C229.738 97.41 228.858 98.05 227.798 98.49C226.758 98.93 225.608 99.15 224.348 99.15ZM235.763 99V76.74H237.893V99H235.763ZM250.24 99.15C248.72 99.15 247.35 98.81 246.13 98.13C244.93 97.43 243.98 96.48 243.28 95.28C242.58 94.06 242.23 92.67 242.23 91.11C242.23 89.53 242.58 88.14 243.28 86.94C243.98 85.74 244.93 84.8 246.13 84.12C247.33 83.44 248.7 83.1 250.24 83.1C251.8 83.1 253.18 83.44 254.38 84.12C255.6 84.8 256.55 85.74 257.23 86.94C257.93 88.14 258.28 89.53 258.28 91.11C258.28 92.67 257.93 94.06 257.23 95.28C256.55 96.48 255.6 97.43 254.38 98.13C253.16 98.81 251.78 99.15 250.24 99.15ZM250.24 97.26C251.38 97.26 252.39 97.01 253.27 96.51C254.15 95.99 254.84 95.27 255.34 94.35C255.86 93.41 256.12 92.33 256.12 91.11C256.12 89.87 255.86 88.79 255.34 87.87C254.84 86.95 254.15 86.24 253.27 85.74C252.39 85.22 251.39 84.96 250.27 84.96C249.15 84.96 248.15 85.22 247.27 85.74C246.39 86.24 245.69 86.95 245.17 87.87C244.65 88.79 244.39 89.87 244.39 91.11C244.39 92.33 244.65 93.41 245.17 94.35C245.69 95.27 246.39 95.99 247.27 96.51C248.15 97.01 249.14 97.26 250.24 97.26ZM270.758 99.15C269.398 99.15 268.168 98.84 267.068 98.22C265.968 97.58 265.088 96.67 264.428 95.49C263.788 94.29 263.468 92.83 263.468 91.11C263.468 89.39 263.788 87.94 264.428 86.76C265.068 85.56 265.938 84.65 267.038 84.03C268.138 83.41 269.378 83.1 270.758 83.1C272.258 83.1 273.598 83.44 274.778 84.12C275.978 84.78 276.918 85.72 277.598 86.94C278.278 88.14 278.618 89.53 278.618 91.11C278.618 92.71 278.278 94.11 277.598 95.31C276.918 96.51 275.978 97.45 274.778 98.13C273.598 98.81 272.258 99.15 270.758 99.15ZM262.628 104.82V83.25H264.668V87.99L264.458 91.14L264.758 94.32V104.82H262.628ZM270.608 97.26C271.728 97.26 272.728 97.01 273.608 96.51C274.488 95.99 275.188 95.27 275.708 94.35C276.228 93.41 276.488 92.33 276.488 91.11C276.488 89.89 276.228 88.82 275.708 87.9C275.188 86.98 274.488 86.26 273.608 85.74C272.728 85.22 271.728 84.96 270.608 84.96C269.488 84.96 268.478 85.22 267.578 85.74C266.698 86.26 265.998 86.98 265.478 87.9C264.978 88.82 264.728 89.89 264.728 91.11C264.728 92.33 264.978 93.41 265.478 94.35C265.998 95.27 266.698 95.99 267.578 96.51C268.478 97.01 269.488 97.26 270.608 97.26ZM289.65 99.15C288.01 99.15 286.57 98.81 285.33 98.13C284.09 97.43 283.12 96.48 282.42 95.28C281.72 94.06 281.37 92.67 281.37 91.11C281.37 89.55 281.7 88.17 282.36 86.97C283.04 85.77 283.96 84.83 285.12 84.15C286.3 83.45 287.62 83.1 289.08 83.1C290.56 83.1 291.87 83.44 293.01 84.12C294.17 84.78 295.08 85.72 295.74 86.94C296.4 88.14 296.73 89.53 296.73 91.11C296.73 91.21 296.72 91.32 296.7 91.44C296.7 91.54 296.7 91.65 296.7 91.77H282.99V90.18H295.56L294.72 90.81C294.72 89.67 294.47 88.66 293.97 87.78C293.49 86.88 292.83 86.18 291.99 85.68C291.15 85.18 290.18 84.93 289.08 84.93C288 84.93 287.03 85.18 286.17 85.68C285.31 86.18 284.64 86.88 284.16 87.78C283.68 88.68 283.44 89.71 283.44 90.87V91.2C283.44 92.4 283.7 93.46 284.22 94.38C284.76 95.28 285.5 95.99 286.44 96.51C287.4 97.01 288.49 97.26 289.71 97.26C290.67 97.26 291.56 97.09 292.38 96.75C293.22 96.41 293.94 95.89 294.54 95.19L295.74 96.57C295.04 97.41 294.16 98.05 293.1 98.49C292.06 98.93 290.91 99.15 289.65 99.15ZM301.066 99V83.25H303.106V87.54L302.896 86.79C303.336 85.59 304.076 84.68 305.116 84.06C306.156 83.42 307.446 83.1 308.986 83.1V85.17C308.906 85.17 308.826 85.17 308.746 85.17C308.666 85.15 308.586 85.14 308.506 85.14C306.846 85.14 305.546 85.65 304.606 86.67C303.666 87.67 303.196 89.1 303.196 90.96V99H301.066ZM320.958 99V83.25H323.088V99H320.958ZM322.038 79.77C321.598 79.77 321.228 79.62 320.928 79.32C320.628 79.02 320.478 78.66 320.478 78.24C320.478 77.82 320.628 77.47 320.928 77.19C321.228 76.89 321.598 76.74 322.038 76.74C322.478 76.74 322.848 76.88 323.148 77.16C323.448 77.44 323.598 77.79 323.598 78.21C323.598 78.65 323.448 79.02 323.148 79.32C322.868 79.62 322.498 79.77 322.038 79.77ZM337.055 83.1C338.335 83.1 339.455 83.35 340.415 83.85C341.395 84.33 342.155 85.07 342.695 86.07C343.255 87.07 343.535 88.33 343.535 89.85V99H341.405V90.06C341.405 88.4 340.985 87.15 340.145 86.31C339.325 85.45 338.165 85.02 336.665 85.02C335.545 85.02 334.565 85.25 333.725 85.71C332.905 86.15 332.265 86.8 331.805 87.66C331.365 88.5 331.145 89.52 331.145 90.72V99H329.015V83.25H331.055V87.57L330.725 86.76C331.225 85.62 332.025 84.73 333.125 84.09C334.225 83.43 335.535 83.1 337.055 83.1ZM37.65 120.1C38.93 120.1 40.04 120.35 40.98 120.85C41.94 121.33 42.68 122.07 43.2 123.07C43.74 124.07 44.01 125.33 44.01 126.85V136H41.88V127.06C41.88 125.4 41.48 124.15 40.68 123.31C39.9 122.45 38.79 122.02 37.35 122.02C36.27 122.02 35.33 122.25 34.53 122.71C33.75 123.15 33.14 123.8 32.7 124.66C32.28 125.5 32.07 126.52 32.07 127.72V136H29.94V127.06C29.94 125.4 29.54 124.15 28.74 123.31C27.94 122.45 26.82 122.02 25.38 122.02C24.32 122.02 23.39 122.25 22.59 122.71C21.79 123.15 21.17 123.8 20.73 124.66C20.31 125.5 20.1 126.52 20.1 127.72V136H17.97V120.25H20.01V124.51L19.68 123.76C20.16 122.62 20.93 121.73 21.99 121.09C23.07 120.43 24.34 120.1 25.8 120.1C27.34 120.1 28.65 120.49 29.73 121.27C30.81 122.03 31.51 123.18 31.83 124.72L30.99 124.39C31.45 123.11 32.26 122.08 33.42 121.3C34.6 120.5 36.01 120.1 37.65 120.1ZM59.4464 136.18C57.8464 136.18 56.3664 135.92 55.0064 135.4C53.6664 134.86 52.4964 134.11 51.4964 133.15C50.5164 132.19 49.7464 131.06 49.1864 129.76C48.6464 128.46 48.3764 127.04 48.3764 125.5C48.3764 123.96 48.6464 122.54 49.1864 121.24C49.7464 119.94 50.5264 118.81 51.5264 117.85C52.5264 116.89 53.6964 116.15 55.0364 115.63C56.3964 115.09 57.8764 114.82 59.4764 114.82C61.0764 114.82 62.5364 115.07 63.8564 115.57C65.1964 116.07 66.3364 116.83 67.2764 117.85L65.8964 119.26C65.0164 118.38 64.0464 117.75 62.9864 117.37C61.9264 116.99 60.7864 116.8 59.5664 116.8C58.2664 116.8 57.0664 117.02 55.9664 117.46C54.8864 117.88 53.9364 118.49 53.1164 119.29C52.3164 120.07 51.6864 120.99 51.2264 122.05C50.7864 123.09 50.5664 124.24 50.5664 125.5C50.5664 126.74 50.7864 127.89 51.2264 128.95C51.6864 130.01 52.3164 130.94 53.1164 131.74C53.9364 132.52 54.8864 133.13 55.9664 133.57C57.0664 133.99 58.2564 134.2 59.5364 134.2C60.7364 134.2 61.8664 134.02 62.9264 133.66C64.0064 133.3 64.9964 132.69 65.8964 131.83L67.1564 133.51C66.1564 134.39 64.9864 135.06 63.6464 135.52C62.3064 135.96 60.9064 136.18 59.4464 136.18ZM65.0264 133.24V125.5H67.1564V133.51L65.0264 133.24ZM79.4095 136.15C77.8895 136.15 76.5195 135.81 75.2995 135.13C74.0995 134.43 73.1495 133.48 72.4495 132.28C71.7495 131.06 71.3995 129.67 71.3995 128.11C71.3995 126.53 71.7495 125.14 72.4495 123.94C73.1495 122.74 74.0995 121.8 75.2995 121.12C76.4995 120.44 77.8695 120.1 79.4095 120.1C80.9695 120.1 82.3495 120.44 83.5495 121.12C84.7695 121.8 85.7195 122.74 86.3995 123.94C87.0995 125.14 87.4495 126.53 87.4495 128.11C87.4495 129.67 87.0995 131.06 86.3995 132.28C85.7195 133.48 84.7695 134.43 83.5495 135.13C82.3295 135.81 80.9495 136.15 79.4095 136.15ZM79.4095 134.26C80.5495 134.26 81.5595 134.01 82.4395 133.51C83.3195 132.99 84.0095 132.27 84.5095 131.35C85.0295 130.41 85.2895 129.33 85.2895 128.11C85.2895 126.87 85.0295 125.79 84.5095 124.87C84.0095 123.95 83.3195 123.24 82.4395 122.74C81.5595 122.22 80.5595 121.96 79.4395 121.96C78.3195 121.96 77.3195 122.22 76.4395 122.74C75.5595 123.24 74.8595 123.95 74.3395 124.87C73.8195 125.79 73.5595 126.87 73.5595 128.11C73.5595 129.33 73.8195 130.41 74.3395 131.35C74.8595 132.27 75.5595 132.99 76.4395 133.51C77.3195 134.01 78.3095 134.26 79.4095 134.26ZM95.4087 136L88.4187 120.25H90.6387L97.0587 134.86H96.0087L102.519 120.25H104.619L97.5987 136H95.4087ZM121.74 136.15C120.24 136.15 118.89 135.81 117.69 135.13C116.51 134.45 115.58 133.51 114.9 132.31C114.22 131.09 113.88 129.69 113.88 128.11C113.88 126.51 114.22 125.11 114.9 123.91C115.58 122.71 116.51 121.78 117.69 121.12C118.89 120.44 120.24 120.1 121.74 120.1C123.12 120.1 124.35 120.41 125.43 121.03C126.53 121.65 127.4 122.56 128.04 123.76C128.7 124.94 129.03 126.39 129.03 128.11C129.03 129.81 128.71 131.26 128.07 132.46C127.43 133.66 126.56 134.58 125.46 135.22C124.38 135.84 123.14 136.15 121.74 136.15ZM121.89 134.26C123.01 134.26 124.01 134.01 124.89 133.51C125.79 132.99 126.49 132.27 126.99 131.35C127.51 130.41 127.77 129.33 127.77 128.11C127.77 126.87 127.51 125.79 126.99 124.87C126.49 123.95 125.79 123.24 124.89 122.74C124.01 122.22 123.01 121.96 121.89 121.96C120.79 121.96 119.8 122.22 118.92 122.74C118.04 123.24 117.34 123.95 116.82 124.87C116.3 125.79 116.04 126.87 116.04 128.11C116.04 129.33 116.3 130.41 116.82 131.35C117.34 132.27 118.04 132.99 118.92 133.51C119.8 134.01 120.79 134.26 121.89 134.26ZM127.83 136V131.26L128.04 128.08L127.74 124.9V113.74H129.87V136H127.83ZM142.492 136.15C140.852 136.15 139.412 135.81 138.172 135.13C136.932 134.43 135.962 133.48 135.262 132.28C134.562 131.06 134.212 129.67 134.212 128.11C134.212 126.55 134.542 125.17 135.202 123.97C135.882 122.77 136.802 121.83 137.962 121.15C139.142 120.45 140.462 120.1 141.922 120.1C143.402 120.1 144.712 120.44 145.852 121.12C147.012 121.78 147.922 122.72 148.582 123.94C149.242 125.14 149.572 126.53 149.572 128.11C149.572 128.21 149.562 128.32 149.542 128.44C149.542 128.54 149.542 128.65 149.542 128.77H135.832V127.18H148.402L147.562 127.81C147.562 126.67 147.312 125.66 146.812 124.78C146.332 123.88 145.672 123.18 144.832 122.68C143.992 122.18 143.022 121.93 141.922 121.93C140.842 121.93 139.872 122.18 139.012 122.68C138.152 123.18 137.482 123.88 137.002 124.78C136.522 125.68 136.282 126.71 136.282 127.87V128.2C136.282 129.4 136.542 130.46 137.062 131.38C137.602 132.28 138.342 132.99 139.282 133.51C140.242 134.01 141.332 134.26 142.552 134.26C143.512 134.26 144.402 134.09 145.222 133.75C146.062 133.41 146.782 132.89 147.382 132.19L148.582 133.57C147.882 134.41 147.002 135.05 145.942 135.49C144.902 135.93 143.752 136.15 142.492 136.15ZM162.038 136.15C160.678 136.15 159.448 135.84 158.348 135.22C157.248 134.58 156.368 133.67 155.708 132.49C155.068 131.29 154.748 129.83 154.748 128.11C154.748 126.39 155.068 124.94 155.708 123.76C156.348 122.56 157.218 121.65 158.318 121.03C159.418 120.41 160.658 120.1 162.038 120.1C163.538 120.1 164.878 120.44 166.058 121.12C167.258 121.78 168.198 122.72 168.878 123.94C169.558 125.14 169.898 126.53 169.898 128.11C169.898 129.71 169.558 131.11 168.878 132.31C168.198 133.51 167.258 134.45 166.058 135.13C164.878 135.81 163.538 136.15 162.038 136.15ZM153.908 141.82V120.25H155.948V124.99L155.738 128.14L156.038 131.32V141.82H153.908ZM161.888 134.26C163.008 134.26 164.008 134.01 164.888 133.51C165.768 132.99 166.468 132.27 166.988 131.35C167.508 130.41 167.768 129.33 167.768 128.11C167.768 126.89 167.508 125.82 166.988 124.9C166.468 123.98 165.768 123.26 164.888 122.74C164.008 122.22 163.008 121.96 161.888 121.96C160.768 121.96 159.758 122.22 158.857 122.74C157.978 123.26 157.278 123.98 156.758 124.9C156.258 125.82 156.008 126.89 156.008 128.11C156.008 129.33 156.258 130.41 156.758 131.35C157.278 132.27 157.978 132.99 158.857 133.51C159.758 134.01 160.768 134.26 161.888 134.26ZM184.022 136V132.52L183.932 131.95V126.13C183.932 124.79 183.552 123.76 182.792 123.04C182.052 122.32 180.942 121.96 179.462 121.96C178.442 121.96 177.472 122.13 176.552 122.47C175.632 122.81 174.852 123.26 174.212 123.82L173.252 122.23C174.052 121.55 175.012 121.03 176.132 120.67C177.252 120.29 178.432 120.1 179.672 120.1C181.712 120.1 183.282 120.61 184.382 121.63C185.502 122.63 186.062 124.16 186.062 126.22V136H184.022ZM178.592 136.15C177.412 136.15 176.382 135.96 175.502 135.58C174.642 135.18 173.982 134.64 173.522 133.96C173.062 133.26 172.832 132.46 172.832 131.56C172.832 130.74 173.022 130 173.402 129.34C173.802 128.66 174.442 128.12 175.322 127.72C176.222 127.3 177.422 127.09 178.922 127.09H184.352V128.68H178.982C177.462 128.68 176.402 128.95 175.802 129.49C175.222 130.03 174.932 130.7 174.932 131.5C174.932 132.4 175.282 133.12 175.982 133.66C176.682 134.2 177.662 134.47 178.922 134.47C180.122 134.47 181.152 134.2 182.012 133.66C182.892 133.1 183.532 132.3 183.932 131.26L184.412 132.73C184.012 133.77 183.312 134.6 182.312 135.22C181.332 135.84 180.092 136.15 178.592 136.15ZM191.847 136V120.25H193.887V124.54L193.677 123.79C194.117 122.59 194.857 121.68 195.897 121.06C196.937 120.42 198.227 120.1 199.767 120.1V122.17C199.687 122.17 199.607 122.17 199.527 122.17C199.447 122.15 199.367 122.14 199.287 122.14C197.627 122.14 196.327 122.65 195.387 123.67C194.447 124.67 193.977 126.1 193.977 127.96V136H191.847ZM209.307 136.15C207.827 136.15 206.687 135.75 205.887 134.95C205.087 134.15 204.687 133.02 204.687 131.56V116.77H206.817V131.44C206.817 132.36 207.047 133.07 207.507 133.57C207.987 134.07 208.667 134.32 209.547 134.32C210.487 134.32 211.267 134.05 211.887 133.51L212.637 135.04C212.217 135.42 211.707 135.7 211.107 135.88C210.527 136.06 209.927 136.15 209.307 136.15ZM201.867 122.02V120.25H211.617V122.02H201.867ZM236.195 120.1C237.475 120.1 238.585 120.35 239.525 120.85C240.485 121.33 241.225 122.07 241.745 123.07C242.285 124.07 242.555 125.33 242.555 126.85V136H240.425V127.06C240.425 125.4 240.025 124.15 239.225 123.31C238.445 122.45 237.335 122.02 235.895 122.02C234.815 122.02 233.875 122.25 233.075 122.71C232.295 123.15 231.685 123.8 231.245 124.66C230.825 125.5 230.615 126.52 230.615 127.72V136H228.485V127.06C228.485 125.4 228.085 124.15 227.285 123.31C226.485 122.45 225.365 122.02 223.925 122.02C222.865 122.02 221.935 122.25 221.135 122.71C220.335 123.15 219.715 123.8 219.275 124.66C218.855 125.5 218.645 126.52 218.645 127.72V136H216.515V120.25H218.555V124.51L218.225 123.76C218.705 122.62 219.475 121.73 220.535 121.09C221.615 120.43 222.885 120.1 224.345 120.1C225.885 120.1 227.195 120.49 228.275 121.27C229.355 122.03 230.055 123.18 230.375 124.72L229.535 124.39C229.995 123.11 230.805 122.08 231.965 121.3C233.145 120.5 234.555 120.1 236.195 120.1ZM255.021 136.15C253.381 136.15 251.941 135.81 250.701 135.13C249.461 134.43 248.491 133.48 247.791 132.28C247.091 131.06 246.741 129.67 246.741 128.11C246.741 126.55 247.071 125.17 247.731 123.97C248.411 122.77 249.331 121.83 250.491 121.15C251.671 120.45 252.991 120.1 254.451 120.1C255.931 120.1 257.241 120.44 258.381 121.12C259.541 121.78 260.451 122.72 261.111 123.94C261.771 125.14 262.101 126.53 262.101 128.11C262.101 128.21 262.091 128.32 262.071 128.44C262.071 128.54 262.071 128.65 262.071 128.77H248.361V127.18H260.931L260.091 127.81C260.091 126.67 259.841 125.66 259.341 124.78C258.861 123.88 258.201 123.18 257.361 122.68C256.521 122.18 255.551 121.93 254.451 121.93C253.371 121.93 252.401 122.18 251.541 122.68C250.681 123.18 250.011 123.88 249.531 124.78C249.051 125.68 248.811 126.71 248.811 127.87V128.2C248.811 129.4 249.071 130.46 249.591 131.38C250.131 132.28 250.871 132.99 251.811 133.51C252.771 134.01 253.861 134.26 255.081 134.26C256.041 134.26 256.931 134.09 257.751 133.75C258.591 133.41 259.311 132.89 259.911 132.19L261.111 133.57C260.411 134.41 259.531 135.05 258.471 135.49C257.431 135.93 256.281 136.15 255.021 136.15ZM274.477 120.1C275.757 120.1 276.877 120.35 277.837 120.85C278.817 121.33 279.577 122.07 280.117 123.07C280.677 124.07 280.957 125.33 280.957 126.85V136H278.827V127.06C278.827 125.4 278.407 124.15 277.567 123.31C276.747 122.45 275.587 122.02 274.087 122.02C272.967 122.02 271.987 122.25 271.147 122.71C270.327 123.15 269.687 123.8 269.227 124.66C268.787 125.5 268.567 126.52 268.567 127.72V136H266.437V120.25H268.477V124.57L268.147 123.76C268.647 122.62 269.447 121.73 270.547 121.09C271.647 120.43 272.957 120.1 274.477 120.1ZM291.69 136.15C290.21 136.15 289.07 135.75 288.27 134.95C287.47 134.15 287.07 133.02 287.07 131.56V116.77H289.2V131.44C289.2 132.36 289.43 133.07 289.89 133.57C290.37 134.07 291.05 134.32 291.93 134.32C292.87 134.32 293.65 134.05 294.27 133.51L295.02 135.04C294.6 135.42 294.09 135.7 293.49 135.88C292.91 136.06 292.31 136.15 291.69 136.15ZM284.25 122.02V120.25H294V122.02H284.25Z" fill="#9B9B9B"/>
</svg>
