<svg xmlns="http://www.w3.org/2000/svg" xmlns:xlink="http://www.w3.org/1999/xlink" viewBox="0 0 189.87 203.49"><defs><style>.cls-1,.cls-11,.cls-6,.cls-9{fill:none;}.cls-2{clip-path:url(#clip-path);}.cls-12,.cls-3{fill:#ff7bac;}.cls-3,.cls-7,.cls-9{stroke:#754c24;}.cls-10,.cls-11,.cls-12,.cls-3,.cls-5,.cls-6,.cls-7,.cls-9{stroke-miterlimit:10;}.cls-10,.cls-11,.cls-3,.cls-7,.cls-9{stroke-width:2px;}.cls-4{fill:#754c24;}.cls-5{fill:red;}.cls-10,.cls-11,.cls-5,.cls-6{stroke:#000;}.cls-7,.cls-8{fill:#fff0de;}.cls-12{stroke:#ff7bac;}</style><clipPath id="clip-path"><rect class="cls-1" y="1.3" width="189" height="201"/></clipPath></defs><g id="Слой_2" data-name="Слой 2"><g id="Слой_1-2" data-name="Слой 1"><g class="cls-2"><path class="cls-3" d="M187,107.91l-22.4,94.58H28.94L5.46,108.32Z"/><path class="cls-4" d="M131.32,202.66l11.83-47.46-46.9,12.27-46.74-13.6,12.17,48.79"/><path class="cls-5" d="M93.88,28.22a7.16,7.16,0,1,0-7.16-7.15A7.16,7.16,0,0,0,93.88,28.22Z"/><path class="cls-6" d="M79.37,6.29c5.95-5.67,11.51,8.33,11.51,8.33"/><path class="cls-7" d="M148.05,82.56c-1.93,1.27-69.42,10.21-71.83,9.49S45.31,79.72,45.31,79.72,42.63,88.5,43.64,87L23.45,81.36c0-12.27,10.74-22.11,16.26-28l.4-.4c1.14-1.2,1.82-1.84,1.82-1.84-4.89-47,13-45.3,13-45.3L64.47,29c16.38-10.62,54.88-11,54.88-11-.64-4.25,7-16.59,7-16.59,14.88,8.93,20.29,58.58,20.29,58.58l2.6,1.21S150,81.25,148.05,82.56Z"/><path class="cls-8" d="M187,108.07c1-3.44-17.12-10-19-25.22-1.51-12-7.32-26.56-13.15-26.49a21.72,21.72,0,0,0-2.91.11h-.26a2.65,2.65,0,0,0-.68.14h-.12c-8.41,2.06-7.76,18.54-23.89,24.83-16.3,6.34-62.28-.28-78.36-4-1.46-.34-4.24-1.14-5.17-1.41-4.38-1.17-13.87,1.76-20.3,5.21C14.6,85.85,2,92.35,5.41,108.42l90.8,18.07L187,108l-45.57,49"/><path class="cls-9" d="M187,108.07c1-3.44-17.12-10-19-25.22-1.51-12-7.32-26.56-13.15-26.49a21.72,21.72,0,0,0-2.91.11h-.26a2.65,2.65,0,0,0-.68.14h-.12c-8.41,2.06-7.76,18.54-23.89,24.83-16.3,6.34-62.28-.28-78.36-4-1.46-.34-4.24-1.14-5.17-1.41-4.38-1.17-13.87,1.76-20.3,5.21C14.6,85.85,2,92.35,5.41,108.42l90.8,18.07L187,108l-45.57,49"/><path class="cls-9" d="M66.51,80.73s13.7-25.12,2.29-29.45-20.95,9.39-27.4,24.6"/><path class="cls-10" d="M85.05,50.56a1.67,1.67,0,1,0-1.67-1.67A1.67,1.67,0,0,0,85.05,50.56Z"/><path class="cls-10" d="M129.31,48a1.67,1.67,0,1,0-1.67-1.67A1.67,1.67,0,0,0,129.31,48Z"/><path class="cls-11" d="M96,49.31s6.77,5.6,13.33-2.17c0,0,8.9,6.28,11.26-2.09"/><path class="cls-12" d="M154.1,62.33a1.21,1.21,0,1,0-1.21-1.21A1.21,1.21,0,0,0,154.1,62.33Z"/><path class="cls-12" d="M148.05,67.87a1.21,1.21,0,1,0-1.21-1.2A1.21,1.21,0,0,0,148.05,67.87Z"/><path class="cls-12" d="M158.28,69.09a1.21,1.21,0,1,0-1.21-1.21A1.21,1.21,0,0,0,158.28,69.09Z"/><path class="cls-12" d="M153.38,75.58A2.37,2.37,0,1,0,151,73.21,2.37,2.37,0,0,0,153.38,75.58Z"/><path class="cls-12" d="M65.87,56.66a1.41,1.41,0,1,0-1.41-1.4A1.4,1.4,0,0,0,65.87,56.66Z"/><path class="cls-12" d="M58,60.86a1.41,1.41,0,1,0-1.4-1.41A1.41,1.41,0,0,0,58,60.86Z"/><path class="cls-12" d="M67,65.28a1.41,1.41,0,1,0-1.41-1.4A1.4,1.4,0,0,0,67,65.28Z"/><path class="cls-12" d="M59.23,70.8a2.76,2.76,0,1,0-2.75-2.75A2.75,2.75,0,0,0,59.23,70.8Z"/><path class="cls-9" d="M50.87,155.2,5.41,108.49"/></g></g></g></svg>